/* XPM */
static char *result[] = {
/* columns rows colors chars-per-pixel */
"48 48 181 2 ",
"   c #7C6F37",
".  c #71673D",
"X  c #71673E",
"o  c #72673E",
"O  c #72683D",
"+  c #72683E",
"@  c #7F7136",
"#  c #7E713D",
"$  c #7E723C",
"%  c #7F733C",
"&  c #7E723D",
"*  c #7F743D",
"=  c #7F753D",
"-  c #7F763D",
";  c #7F743E",
":  c #877837",
">  c #8D7C33",
",  c #8D7D34",
"<  c #80763D",
"1  c #83763C",
"2  c #837A3D",
"3  c #85783C",
"4  c #86783C",
"5  c #847B3D",
"6  c #867B3D",
"7  c #867C3C",
"8  c #867D3C",
"9  c #867D3D",
"0  c #877D3D",
"q  c #8A7E3C",
"w  c #907F34",
"e  c #A88E1E",
"r  c #AD911B",
"t  c #AE921B",
"y  c #AB901D",
"u  c #92863C",
"i  c #94883B",
"p  c #92893C",
"a  c #A08823",
"s  c #A38A22",
"d  c #A48B24",
"f  c #AA9021",
"g  c #AB9223",
"h  c #A7912C",
"j  c #B09520",
"k  c #B0982E",
"l  c #AC9736",
"z  c #AE9A39",
"x  c #B49E38",
"c  c #AFA13A",
"v  c #AEA53C",
"b  c #B7A038",
"n  c #B0A73B",
"m  c #BBA438",
"M  c #B1A83B",
"N  c #B7AF3B",
"B  c #B1A83C",
"V  c #B8AD3B",
"C  c #B8AE3B",
"Z  c #BDAE3A",
"A  c #B8AF3C",
"S  c #B8B03B",
"D  c #BAB23B",
"F  c #BBB33B",
"G  c #BFB43B",
"H  c #BFB63B",
"J  c #BFB73B",
"K  c #C7A40E",
"L  c #CEA909",
"P  c #CFA909",
"I  c #D5AE06",
"U  c #D9B103",
"Y  c #DFB400",
"T  c #DFB500",
"R  c #D7B10A",
"E  c #E0B605",
"W  c #E1B705",
"Q  c #E1B805",
"!  c #E4BA0A",
"~  c #E5BF0D",
"^  c #D4B528",
"/  c #D1B42C",
"(  c #C0A735",
")  c #C5BB3B",
"_  c #D6BA36",
"`  c #D9BD35",
"'  c #DABE36",
"]  c #E5C10B",
"[  c #E5C30C",
"{  c #EAC317",
"}  c #E5C01B",
"|  c #E5C01D",
" . c #EBC51A",
".. c #EBC71A",
"X. c #ECC51B",
"o. c #ECC61B",
"O. c #EECB1F",
"+. c #EDD21A",
"@. c #EDD31A",
"#. c #EDD41B",
"$. c #EFD81E",
"%. c #D8C137",
"&. c #DCC737",
"*. c #DACB39",
"=. c #DECF38",
"-. c #DFD73A",
";. c #E5C120",
":. c #E8C72C",
">. c #F1CD26",
",. c #F2CE28",
"<. c #F2D425",
"1. c #F2D526",
"2. c #F3D02B",
"3. c #F4D02B",
"4. c #F4D12C",
"5. c #F4D12F",
"6. c #F5D22E",
"7. c #F5D22F",
"8. c #F6D62F",
"9. c #F5DE2A",
"0. c #EBCA31",
"q. c #EBCB33",
"w. c #EACA34",
"e. c #EACB35",
"r. c #EACD35",
"t. c #EDCF35",
"y. c #EDD135",
"u. c #EDDA37",
"i. c #EEDA37",
"p. c #F6D331",
"a. c #F7D532",
"s. c #F7D533",
"d. c #F8D733",
"f. c #F8D634",
"g. c #F8D734",
"h. c #F7DA34",
"j. c #F3DF36",
"k. c #F2DE37",
"l. c #F8D834",
"z. c #F8D934",
"x. c #F8DA34",
"c. c #F9DB34",
"v. c #F9DF35",
"b. c #FADF35",
"n. c #E9E23A",
"m. c #EFE439",
"M. c #F4E037",
"N. c #F9E433",
"B. c #FAE235",
"V. c #FAE336",
"C. c #FAE436",
"Z. c #FBE536",
"A. c #FAE636",
"S. c #FBE636",
"D. c #FBE737",
"F. c #FAEE31",
"G. c #FAEE32",
"H. c #FBE837",
"J. c #FBEA37",
"K. c #F1E639",
"L. c #F1E739",
"P. c #F0E939",
"I. c #F1EA39",
"U. c #F0E93A",
"Y. c #FCEE38",
"T. c #FDEF38",
"R. c #FBF134",
"E. c #FBF035",
"W. c #FCF235",
"Q. c #F7F03A",
"!. c #FDF238",
"~. c #FDF239",
"^. c #FCF339",
"/. c #FDF438",
"(. c #FEF439",
"). c #FEF539",
"_. c #FEF638",
"`. c #FEF739",
"'. c #FEF83A",
"]. c #FFF83A",
"[. c None",
/* pixels */
"[.[.[.[.[.[.[.[.[.[.[.[.[.[.[.[.[.[.[.[.[.[.[.[.[.[.[.[.[.[.[.[.[.[.[.[.[.[.[.[.[.[.[.[.[.[.[.[.",
"[.[.[.[.[.[.[.[.[.[.[.[.[.[.[.[.[.[.[.[.[.[.[.[.[.[.[.[.[.[.[.[.[.[.[.[.[.[.[.[.[.[.[.[.[.[.[.[.",
"[.[.[.[.[.[.[.[.[.[.[.[.[.[.[.[.[.[.[.[.[.[.[.[.[.[.[.[.[.[.[.[.[.[.[.[.[.[.[.[.[.[.[.[.[.[.[.[.",
"[.[.[.[.[.[.[.[.[.[.[.[.[.[.[.[.[.[.[.[.[.[.[.[.[.[.[.[.[.[.[.[.[.[.[.[.[.[.[.[.[.[.[.[.[.[.[.[.",
"[.[.[.[.[.[.[.[.[.[.[.[.[.[.[.[.[.[.[.[.[.[.[.[.[.[.[.[.[.[.[.[.[.[.[.[.[.[.[.[.[.[.[.[.[.[.[.[.",
"[.[.[.[.[.[.[.[.[.[.[.[.[.[.[.[.[.[.[.[.[.[.[.[.[.[.[.[.[.[.[.[.[.[.[.[.[.[.[.[.[.[.[.[.[.[.[.[.",
"[.[.[.[.[.[.[.[.[.[.[.[.[.[.[.[.[.[.[.[.[.[.[.[.[.[.[.[.[.[.[.[.[.[.[.[.[.[.[.[.[.[.[.[.[.[.[.[.",
"[.[.[.[.[.[.[.[.[.[.[.[.[.[.[.[.[.[.[.[.[.[.[.[.[.[.[.[.[.[.[.[.[.[.[.[.[.[.[.[.[.[.[.[.[.[.[.[.",
"[.[.[.[.[.[.[.[.[.[.[.[.[.[.[.[.[.[.[.[.[.[.[.[.[.[.[.[.[.[.[.[.[.[.[.[.[.[.[.[.[.[.[.[.[.[.[.[.",
"[.[.[.[.[.[.[.[.[.[.[.[.[.[.[.[.[.[.[.[.[.[.[.[.[.[.[.[.[.[.[.[.[.[.[.[.[.[.[.[.[.[.[.[.[.[.[.[.",
"[.[.[.[.[.[.[.[.[.[.[.[.[.[.[.[.[.[.[.[.[.[.[.[.[.[.[.[.[.[.[.[.[.[.[.[.[.[.[.[.[.[.[.[.[.[.[.[.",
"[.[.[.[.[.[.[.[.[.[.[.[.[.[.[.[.[.[.[.+ + + + + + + + + + [.[.[.[.[.[.[.[.[.[.[.[.[.[.[.[.[.[.[.",
"[.[.[.[.[.[.[.[.[.[.[.[.[.[.[.[.[.[.. H `.`.F . `.].`.`.J . [.[.[.[.[.[.[.[.[.[.[.[.[.[.[.[.[.[.",
"[.[.[.[.[.[.[.[.[.[.[.[.[.[.[.[.[.# x &.M.G A F A.S.A.S.=.N ; [.[.[.[.[.[.[.[.[.[.[.[.[.[.[.[.[.",
"[.[.[.[.[.[.[.[.[.[.[.[.[.[.[.[.2 u y.t.' i J `.x.c.x.f.B.K.p 2 [.[.[.[.[.[.[.[.[.[.[.[.[.[.[.[.",
"[.[.[.[.[.[.[.[.[.[.[.[.[.[.[.+ v I.^.V q -.Q.`.(.(.T.z.d.h.L.v . [.[.[.[.[.[.[.[.[.[.[.[.[.[.[.",
"[.[.[.[.[.[.[.[.[.[.[.[.[.[.[.o c H.H.c < n.].`.`.].~.z.s.z.(.B X [.[.[.[.[.[.[.[.[.[.[.[.[.[.[.",
"[.[.[.[.[.[.[.[.[.[.[.[.[.[.[.. z l.l.z - n.].`.`.].!.z.s.l./.M . [.[.[.[.[.[.[.[.[.[.[.[.[.[.[.",
"[.[.[.[.[.[.[.[.[.[.[.[.[.[.[.. n /./.n - n.].`.`.].!.z.s.l./.M . [.[.[.[.[.[.[.[.[.[.[.[.[.[.[.",
"[.[.[.[.[.[.[.[.[.[.[.[.[.[.1 b %.j.C S ) k.Y.`.`.].).J.v.g.V.*.D 5 [.[.[.[.[.[.[.[.[.[.[.[.[.[.",
"[.[.[.[.[.[.[.[.[.[.[.[.[.o 4 r.z.r.% H (.c.S.`.`.].'.'.H.s.s.H.U.0 + [.[.[.[.[.[.[.[.[.[.[.[.[.",
"[.[.[.[.[.[.[.[.[.[.[.[.[.o 7 m.~.m.= H (.x.A.`.`.].`.'.H.s.s.H.U.9 + [.[.[.[.[.[.[.[.[.[.[.[.[.",
"[.[.[.[.[.[.[.[.[.[.[.[.[.+ 0 U.].U.< Z Z.l.S.].].].].].H.f.f.b.i.6 O [.[.[.[.[.[.[.[.[.[.[.[.[.",
"[.[.[.[.[.[.[.[.[.[.[.[.[.o 8 P.`.P.- m s.s.A.`.`.].`.`.H.s.s.s.w.3 + [.[.[.[.[.[.[.[.[.[.[.[.[.",
"[.[.[.[.[.[.[.[.[.[.[.[.[.o 3 w.s.w.$ m s.s.X.Y `.].`.`.H.s.s.s.w.3 + [.[.[.[.[.[.[.[.[.[.[.[.[.",
"[.[.[.[.[.[.[.[.[.[.[.[.[.+ 6 i.D.u.* m f.f.,.X.].`.W.$.1.f.f.f.e.4 + [.[.[.[.[.[.[.[.[.[.[.[.[.",
"[.[.[.[.[.[.[.[.[.[.[.[.[.o 7 m.~.m.= m f.s.l.x.`.].G.~ o.s.s.s.w.3 + [.[.[.[.[.[.[.[.[.[.[.[.[.",
"[.[.[.[.[.[.[.[.[.[.[.[.[.o 4 r.z.r.% m f.f.C.(.`.].!.8.p.s.s.s.w.4 + [.[.[.[.[.[.[.[.[.[.[.[.[.",
"[.[.[.[.[.[.[.[.[.[.[.[.[.[.1 b / | f k ( ;.9.`.`.].E.O.>.s.s._ b 1 [.[.[.[.[.[.[.[.[.[.[.[.[.[.",
"[.[.[.[.[.[.[.[.[.[.[.[.[.[.[.. d W W d   P #.`.`.].F.] ..a.6.l . [.[.[.[.[.[.[.[.[.[.[.[.[.[.[.",
"[.[.[.[.[.[.[.[.[.[.[.[.[.[.[.. l 6.6.l   P #.`.`.]._.R.N.6.! d . [.[.[.[.[.[.[.[.[.[.[.[.[.[.[.",
"[.[.[.[.[.[.[.[.[.[.[.[.[.[.[.. h { { h   L [ +.+.@.+.+.<.6.W s . [.[.[.[.[.[.[.[.[.[.[.[.[.[.[.",
"[.[.[.[.[.[.[.[.[.[.[.[.[.[.[.X a I E g : K U Y Q Q Q Q  .5.R a X [.[.[.[.[.[.[.[.[.[.[.[.[.[.[.",
"[.[.[.[.[.[.[.[.[.[.[.[.[.[.[.[.@ > :.0.` w t Y 2.4.3.4.7.q., @ [.[.[.[.[.[.[.[.[.[.[.[.[.[.[.[.",
"[.[.[.[.[.[.[.[.[.[.[.[.[.[.[.[.[.& x ^ } j e y X.o.X.o.^ x & [.[.[.[.[.[.[.[.[.[.[.[.[.[.[.[.[.",
"[.[.[.[.[.[.[.[.[.[.[.[.[.[.[.[.[.[.. r Y Y y . Y T Y Y r . [.[.[.[.[.[.[.[.[.[.[.[.[.[.[.[.[.[.",
"[.[.[.[.[.[.[.[.[.[.[.[.[.[.[.[.[.[.[.. . . + . . + . . . [.[.[.[.[.[.[.[.[.[.[.[.[.[.[.[.[.[.[.",
"[.[.[.[.[.[.[.[.[.[.[.[.[.[.[.[.[.[.[.[.[.[.[.[.[.[.[.[.[.[.[.[.[.[.[.[.[.[.[.[.[.[.[.[.[.[.[.[.",
"[.[.[.[.[.[.[.[.[.[.[.[.[.[.[.[.[.[.[.[.[.[.[.[.[.[.[.[.[.[.[.[.[.[.[.[.[.[.[.[.[.[.[.[.[.[.[.[.",
"[.[.[.[.[.[.[.[.[.[.[.[.[.[.[.[.[.[.[.[.[.[.[.[.[.[.[.[.[.[.[.[.[.[.[.[.[.[.[.[.[.[.[.[.[.[.[.[.",
"[.[.[.[.[.[.[.[.[.[.[.[.[.[.[.[.[.[.[.[.[.[.[.[.[.[.[.[.[.[.[.[.[.[.[.[.[.[.[.[.[.[.[.[.[.[.[.[.",
"[.[.[.[.[.[.[.[.[.[.[.[.[.[.[.[.[.[.[.[.[.[.[.[.[.[.[.[.[.[.[.[.[.[.[.[.[.[.[.[.[.[.[.[.[.[.[.[.",
"[.[.[.[.[.[.[.[.[.[.[.[.[.[.[.[.[.[.[.[.[.[.[.[.[.[.[.[.[.[.[.[.[.[.[.[.[.[.[.[.[.[.[.[.[.[.[.[.",
"[.[.[.[.[.[.[.[.[.[.[.[.[.[.[.[.[.[.[.[.[.[.[.[.[.[.[.[.[.[.[.[.[.[.[.[.[.[.[.[.[.[.[.[.[.[.[.[.",
"[.[.[.[.[.[.[.[.[.[.[.[.[.[.[.[.[.[.[.[.[.[.[.[.[.[.[.[.[.[.[.[.[.[.[.[.[.[.[.[.[.[.[.[.[.[.[.[.",
"[.[.[.[.[.[.[.[.[.[.[.[.[.[.[.[.[.[.[.[.[.[.[.[.[.[.[.[.[.[.[.[.[.[.[.[.[.[.[.[.[.[.[.[.[.[.[.[.",
"[.[.[.[.[.[.[.[.[.[.[.[.[.[.[.[.[.[.[.[.[.[.[.[.[.[.[.[.[.[.[.[.[.[.[.[.[.[.[.[.[.[.[.[.[.[.[.[.",
"[.[.[.[.[.[.[.[.[.[.[.[.[.[.[.[.[.[.[.[.[.[.[.[.[.[.[.[.[.[.[.[.[.[.[.[.[.[.[.[.[.[.[.[.[.[.[.[."
};
