/* XPM */
static char *result[] = {
/* columns rows colors chars-per-pixel */
"48 48 179 2 ",
"   c #090909",
".  c gray4",
"X  c #2C4446",
"o  c #2D4547",
"O  c #324C4F",
"+  c #364C4E",
"@  c #315154",
"#  c #355457",
"$  c #375559",
"%  c #34575A",
"&  c #37575A",
"*  c #38575A",
"=  c #38575B",
"-  c #37595C",
";  c #365A5D",
":  c #395A5D",
">  c #3D6064",
",  c #3C6367",
"<  c #3D6568",
"1  c #3D6669",
"2  c #3E686C",
"3  c #415C5F",
"4  c #415C60",
"5  c #456165",
"6  c #406467",
"7  c #406568",
"8  c #406569",
"9  c #416669",
"0  c #42676B",
"q  c #476569",
"w  c #446C70",
"e  c #4D6C71",
"r  c #4D6D71",
"t  c #4E6E72",
"y  c #477175",
"u  c #477176",
"i  c #487176",
"p  c #487276",
"a  c #487277",
"s  c #457478",
"d  c #47777C",
"f  c #497479",
"g  c #497579",
"h  c #4A757A",
"j  c #4A767B",
"k  c #517276",
"l  c #517277",
"z  c #517377",
"x  c #646464",
"c  c #656565",
"v  c #676767",
"b  c #687C7F",
"n  c #747474",
"m  c #767676",
"M  c #7E7E7E",
"N  c #FFDA01",
"B  c #FFDB01",
"V  c #FFDC00",
"C  c #EFE02F",
"Z  c #F3E22F",
"A  c #EEE030",
"S  c #F1E234",
"D  c #E0E35A",
"F  c #DCE465",
"G  c #D9E773",
"H  c #D3E77F",
"J  c #5C8287",
"K  c #5B878B",
"L  c #5F868B",
"P  c #5D959B",
"I  c #5A999F",
"U  c #6C878B",
"Y  c #778486",
"T  c #60999F",
"R  c #7EBB9E",
"E  c #6E9DA3",
"W  c #66A5AC",
"Q  c #65ADB4",
"!  c #6AABB2",
"~  c #69ADB4",
"^  c #6BADB4",
"/  c #78ACB3",
"(  c #79ACB3",
")  c #7AAEB5",
"_  c #68B1B8",
"`  c #6EB1B8",
"'  c #7CB1B8",
"]  c #78B6BE",
"[  c #5EB3C6",
"{  c #75BDC5",
"}  c #6FC0CD",
"|  c #6DC0D1",
" . c #71C2D2",
".. c #74C6D6",
"X. c #74C9D2",
"o. c #7EC9D1",
"O. c #7CCCDC",
"+. c #7BD5DE",
"@. c #7DD5DE",
"#. c #818181",
"$. c gray54",
"%. c #8B8B8B",
"&. c gray55",
"*. c gray58",
"=. c #8FBF8B",
"-. c #83BC98",
";. c gray66",
":. c #AEAEAE",
">. c #ADBDBF",
",. c gray69",
"<. c #B6B6B6",
"1. c #95C183",
"2. c #94C38B",
"3. c #8BC8AF",
"4. c #CBE998",
"5. c #C7EAA2",
"6. c #86BEC3",
"7. c #80D5DE",
"8. c #81D5DE",
"9. c #83D5DE",
"0. c #AAC1C4",
"q. c #81D9E2",
"w. c #84D9E2",
"e. c #84DBE4",
"r. c #87DDE5",
"t. c #89D8E5",
"y. c #8BDBE4",
"u. c #8AD9E6",
"i. c #8CDBE7",
"p. c #8DDBE7",
"a. c #88DDE5",
"s. c #8EDDE5",
"d. c #8EDEE7",
"f. c #92DDE5",
"g. c #95DDE5",
"h. c #8DE1EA",
"j. c #92E1E8",
"k. c #90E1EA",
"l. c #92E1EA",
"z. c #93E1EB",
"x. c #93E2EB",
"c. c #94E2E8",
"v. c #96E3EA",
"b. c #95E3EC",
"n. c #94E4EE",
"m. c #96E6F0",
"M. c #99E6F0",
"N. c #9BEAF3",
"B. c #9DEAF3",
"V. c #A5E4EB",
"C. c #B5E6EB",
"Z. c #A1ECF6",
"A. c #A0EDF7",
"S. c #A4EFF8",
"D. c #AAF2F5",
"F. c #AAF2F7",
"G. c #ACF4FA",
"H. c #A8F2FC",
"J. c #ACF5FD",
"K. c #AEF6FD",
"L. c #B0F7F9",
"P. c #B0F7FE",
"I. c #BAF5FD",
"U. c #B3F9FB",
"Y. c #B3FAFE",
"T. c #B4FAFC",
"R. c #B6FBFE",
"E. c #B7FDFF",
"W. c #BBFFFF",
"Q. c gray81",
"!. c #C2F6FD",
"~. c #DAF2F5",
"^. c #D2F8FE",
"/. c #DCFAFE",
"(. c #E5FBFE",
"). c #EEFDFF",
"_. c #F5FEFF",
"`. c white",
"'. c None",
/* pixels */
"'.'.'.'.'.'.'.'.'.'.'.'.'.'.'.'.'.'.'.'.'.'.'.'.'.'.'.'.'.'.'.'.'.'.'.'.'.'.'.'.'.'.'.'.'.'.'.'.",
"'.'.'.'.'.'.'.'.'.'.'.'.'.'.'.'.'.'.'.'.'.'.'.'.'.'.'.'.'.'.'.'.'.'.'.'.'.'.'.'.'.'.'.'.'.'.'.'.",
"'.'.'.'.'.'.'.'.'.'.'.'.'.'.'.'.'.'.'.'.'.'.'.'.'.'.'.'.'.'.'.'.'.'.'.'.'.'.'.'.'.'.'.'.'.'.'.'.",
"'.'.'.'.c Q.Q.n '.'.'.'.'.Q.Q.*.'.'.'.'.'.'.'.'.'.'.'.'.'.'.'.'.;.Q.Q.'.'.'.'.'.'.'.'.'.'.'.'.'.",
"'.'.'.'.m `.`.&.'.'.'.'.'.`.`.<.'.'.'.'.'.'.'.'.'.'.'.'.'.'.'.'.Q.`.`.'.'.'.'.'.'.'.'.'.'.'.'.'.",
"'.'.'.'.v `.`.%.'.'.'.'.. `.`.<.'.'.'.'.'.'.'.'.'.'.'.'.'.'.'.'.Q.`.`.  '.'.'.'.'.'.'.'.'.'.'.'.",
"'.'.`.`.`.`.`.%.'.'.Q.`.`.  '.'.'.'.' H.H.H.H.H.H.H.H.H.H.L '.'.'.'.  `.`.<.'.'.'.'.'.'.'.'.'.'.",
"'.'.`.`.`.`.`.%.'.'.Q.`.`.'.'.'.'.'.) H.H.H.H.H.H.H.H.H.H.J '.'.'.'.'.`.`.<.'.'.'.'.'.'.'.'.'.'.",
"'.'.`.`.`.`.`.%.'.'.Q.`.`.'.'.'.l r 6.K.K.K.K.K.H.H.H.H.H.E t z '.'.'.`.`.<.'.'.'.'.'.'.'.'.'.'.",
"'.'.`.`.`.`.`.%.'.'.Q.`.`.'.'.k H.H.Y.W.W.W.W.W.H.H.H.H.H.H.H.H.q '.'.`.`.<.'.'.'.'.'.'.'.'.'.'.",
"'.'.`.`.`.`.`.%.'.'.Q.`.`.'.'.r H.H.Y.W.W.W.W.W.H.H.H.H.H.H.H.H.4 '.'.`.`.<.'.'.'.'.'.'.'.'.'.'.",
"'.'.`.`.`.`.`.%.'.'.n $.M ,.<.0.H.H.Y.W.W.W.W.W.O.O.t.H.H.H.H.H.>.<.:.#.%.v '.'.'.'.'.'.'.'.'.'.",
"'.'.`.`.`.`.`.%.'.'.'.'.'.`.`.(.H.H.Y.W.W.W.W.W.[ [ ..H.H.H.H.H.).`.`.'.'.'.'.'.'.'.'.'.'.'.'.'.",
"'.'.`.`.`.`.`.%.'.'.'.'.'.`.`.(.H.H.Y.W.W.W.W.W.[ [ ..H.H.H.H.H.).`.`.'.'.'.'.'.'.'.'.'.'.'.'.'.",
"'.'.`.`.`.`.`.%.'.'.'.'.'.'.x U H.H.G S Z 3. . .[ [ 2.A C 5.H.H.b c '.'.'.'.'.'.'.'.'.'.'.'.'.'.",
"'.'.`.`.`.`.`.%.'.'.'.'.'.'.'.e H.H.F V V R [ [ [ [ =.V V 4.H.H.3 '.'.'.'.'.'.'.'.'.'.'.'.'.'.'.",
"'.'.`.`.`.`.`.%.'.'.'.'.'.'.'.5 H.H.D N N -.[ [ [ [ 1.V B H H.H.+ '.'.'.'.'.'.'.'.'.'.'.'.'.'.'.",
"'.'.`.`.`.`.`.%.'.'.'.'.'.9.9.d.H.H.H.H.F.} [ [ [ [ ..H.H.D.H.H.e.+.+.'.'.'.'.'.'.'.'.'.'.'.'.'.",
"'.'.`.`.`.`.`.%.'.'.'.'.'.9.9.d.H.H.H.H.H.| [ [ [ [ ..H.H.H.H.H.e.+.+.'.'.'.'.'.'.'.'.'.'.'.'.'.",
"'.'.~.~.~.~.~.Y '.'.$ 6 * d.d.x.B.B.S.H.H.| [ [ [ [ ..H.H.A.N.N.q.+.+.; , < < < < < < < 1 2 '.'.",
"'.'.9.9.9.9.9.f '.'.^ 9.9.H.H.B.9.9.M.H.H.| [ [ [ [ ..H.H.h.+.+.+.+.+.+.+.+.+.+.+.+.+.+.+.+.'.'.",
"'.'.9.9.9.9.9.p '.'.^ 9.9.H.H.B.9.9.M.H.H.| [ [ [ [ ..H.H.h.+.+.+.+.+.+.+.+.+.+.+.+.+.+.+.+.'.'.",
"'.'.M.M.z.9.9.] ( / o.9.9.Y.Y.G.M.M.b.l.l.i.u.u.u.u.p.l.l.n.m.m.q.+.+.m.m.m.m.m.m.m.m.q.+.+.'.'.",
"'.'.H.H.B.9.9.M.H.H.y.9.9.W.W.R.H.H.l.9.9.Z.H.H.H.H.B.9.9.M.H.H.e.+.+.H.H.H.H.H.H.H.H.e.+.+.'.'.",
"'.'.H.H.B.9.9.M.H.H.y.9.9.W.W.R.H.H.l.9.9.Z.H.H.H.H.B.9.9.M.H.H.e.+.+.H.H.H.H.H.H.H.H.e.+.+.'.'.",
"'.'.e.e.w.9.9.M.H.H.y.9.9.J.J.P.E.E.U.L.L.j.y.y.y.y.v.L.L.T.E.E.r.+.+.H.H.H.H.H.^.).).f.+.+.'.'.",
"'.'.+.+.@.9.9.M.H.H.y.9.9.H.H.K.W.W.W.W.W.s.9.9.9.9.c.W.W.W.W.W.a.+.+.H.H.H.H.H./.`.`.g.+.+.'.'.",
"'.'.+.+.@.9.9.M.H.H.y.9.9.H.H.K.W.W.W.W.W.s.9.9.9.9.c.W.W.W.W.W.a.+.+.H.H.H.H.H./.`.`.g.+.+.'.'.",
"'.'.9.9.9.9.9.w '.'.'.'.  9.9.9.9.9.9.9.9.9.9.9.9.9.8.+.+.+.+.+.+.+.+.H.H.!.`.`.`.`.`.g.+.+.'.'.",
"'.'.9.9.9.9.9.g '.'.'.'.'.9.9.9.9.9.9.9.9.9.9.9.9.9.8.+.+.+.+.+.+.+.+.H.H.!.`.`.`.`.`.g.+.+.'.'.",
"'.'.T T T T T = '.'.'.'.'.T T ! 9.9.9.9.9.9.9.9.9.9.8.@.@._ I I X.+.+.H.H.I.(.(._.`.`.g.+.+.'.'.",
"'.'.'.'.'.'.'.'.'.'.'.'.'.'.'.> 9.9.9.9.9.9.9.9.9.9.9.9.9.i '.'.Q +.+.H.H.H.H.H./.`.`.g.+.+.'.'.",
"'.'.'.'.'.'.'.'.'.'.'.'.'.'.'.6 9.9.9.9.9.9.9.9.9.9.9.9.9.h '.'.Q +.+.H.H.H.H.H./.`.`.g.+.+.'.'.",
"'.'.'.'.'.'.'.'.'.'.'.'.'.'.'.7 9.9.P u y { 9.9.9.9.` p h o '.'.~ 7.7.l.l.k.h.h.V.C.C.K s d '.'.",
"'.'.'.'.'.'.'.'.'.'.'.'.'.'.'.8 9.9.a '.'.^ 9.9.9.9.T '.'.'.'.'.^ 9.9.9.9.8.+.+.7.9.9.# '.'.'.'.",
"'.'.'.'.'.'.'.'.'.'.'.'.'.'.'.0 9.9.j '.'.^ 9.9.9.9.T '.'.'.'.'.^ 9.9.9.9.8.+.+.7.9.9.'.'.'.'.'.",
"'.'.'.'.'.'.'.'.'.'.'.'.'.'.'.'.'.'.'.'.'.'.& X 9.9.T '.'.'.'.'.'.& X 9.9.W @ % - : '.'.'.'.'.'.",
"'.'.'.'.'.'.'.'.'.'.'.'.'.'.'.'.'.'.'.'.'.'.'.'.9.9.T '.'.'.'.'.'.'.'.9.9.T '.'.'.'.'.'.'.'.'.'.",
"'.'.'.'.'.'.'.'.'.'.'.'.'.'.'.'.'.'.'.'.'.'.'.'.9.9.T '.'.'.'.'.'.'.'.9.9.T '.'.'.'.'.'.'.'.'.'.",
"'.'.'.'.'.'.'.'.'.'.'.'.'.'.'.'.'.'.'.'.'.'.'.'.'.'.'.'.'.'.'.'.'.'.'.'.'.'.'.'.'.'.'.'.'.'.'.'.",
"'.'.'.'.'.'.'.'.'.'.'.'.'.'.'.'.'.'.'.'.'.'.'.'.'.'.'.'.'.'.'.'.'.'.'.'.'.'.'.'.'.'.'.'.'.'.'.'.",
"'.'.'.'.'.'.'.'.'.'.'.'.'.'.'.'.'.'.'.'.'.'.'.'.0 9 O '.'.'.'.'.'.'.'.'.'.'.'.'.'.'.'.'.'.'.'.'.",
"'.'.'.'.'.'.'.'.'.'.'.'.'.'.'.'.'.'.'.'.'.'.'.'.9.9.T '.'.'.'.'.'.'.'.'.'.'.'.'.'.'.'.'.'.'.'.'.",
"'.'.'.'.'.'.'.'.'.'.'.'.'.'.'.'.'.'.'.'.'.'.'.'.9.9.T '.'.'.'.'.'.'.'.'.'.'.'.'.'.'.'.'.'.'.'.'.",
"'.'.'.'.'.'.'.'.'.'.'.'.'.'.'.'.'.'.'.'.'.'.'.'.'.'.'.'.'.'.'.'.'.'.'.'.'.'.'.'.'.'.'.'.'.'.'.'.",
"'.'.'.'.'.'.'.'.'.'.'.'.'.'.'.'.'.'.'.'.'.'.'.'.'.'.'.'.'.'.'.'.'.'.'.'.'.'.'.'.'.'.'.'.'.'.'.'.",
"'.'.'.'.'.'.'.'.'.'.'.'.'.'.'.'.'.'.'.'.'.'.'.'.'.'.'.'.'.'.'.'.'.'.'.'.'.'.'.'.'.'.'.'.'.'.'.'.",
"'.'.'.'.'.'.'.'.'.'.'.'.'.'.'.'.'.'.'.'.'.'.'.'.'.'.'.'.'.'.'.'.'.'.'.'.'.'.'.'.'.'.'.'.'.'.'.'."
};
