/* XPM */
static char *_c0272da8f364b42d4efe59e2d7659fdmG0xOSaRb40rGoCY[] = {
/* columns rows colors chars-per-pixel */
"48 48 135 2 ",
"   c None",
".  c #000000",
"X  c #0C0101",
"o  c #05050A",
"O  c #150204",
"+  c #1C0204",
"@  c #030A13",
"#  c #090913",
"$  c #000E1A",
"%  c #0C0D1B",
"&  c #110D17",
"*  c #00101D",
"=  c #220101",
"-  c #2F0202",
";  c #2F0804",
":  c #22060C",
">  c #2B040A",
",  c #31050C",
"<  c #39060D",
"1  c #350710",
"2  c #0F0F21",
"3  c #021323",
"4  c #0E1022",
"5  c #00172A",
"6  c #001A2F",
"7  c #111325",
"8  c #14142B",
"9  c #16192B",
"0  c #181B2F",
"q  c #021C33",
"w  c #0D1830",
"e  c #001F38",
"r  c #161731",
"t  c #171834",
"y  c #191B34",
"u  c #1B1B3A",
"i  c #340F22",
"p  c #2C1C29",
"a  c #251B39",
"s  c #311630",
"d  c #321D32",
"f  c #381F3E",
"g  c #00223E",
"h  c #1D2038",
"j  c #20243F",
"k  c #470303",
"l  c #420B0D",
"z  c #5E0303",
"x  c #56070B",
"c  c #411608",
"v  c #4F120E",
"b  c #461809",
"n  c #4C190A",
"m  c #54150E",
"M  c #521B0B",
"N  c #440710",
"B  c #4E0812",
"V  c #550814",
"C  c #5C0915",
"Z  c #7C1409",
"A  c #660A18",
"S  c #6E0B1A",
"D  c #750C1B",
"F  c #7B0C1D",
"G  c #761B15",
"H  c #7A1917",
"J  c #56251A",
"K  c #61210D",
"L  c #71260F",
"P  c #792810",
"I  c #491E34",
"U  c #461E3F",
"Y  c #601734",
"T  c #472233",
"R  c #1D1E41",
"E  c #002645",
"W  c #00294C",
"Q  c #162347",
"!  c #1F2143",
"~  c #002E54",
"^  c #033056",
"/  c #212443",
"(  c #242846",
")  c #23264A",
"_  c #262A4B",
"`  c #282D4F",
"'  c #36274B",
"]  c #272A51",
"[  c #2A2E54",
"{  c #2C3056",
"}  c #2E325B",
"|  c #30365E",
" . c #303660",
".. c #333964",
"X. c #5B2E4A",
"o. c #473056",
"O. c #41345C",
"+. c #483259",
"@. c #483B5B",
"#. c #713547",
"$. c #776374",
"%. c #800D1E",
"&. c #801719",
"*. c #8E131F",
"=. c #931A1D",
"-. c #862D12",
";. c #882E12",
":. c #9E291A",
">. c #9C3414",
",. c #AC2B1D",
"<. c #AE3A17",
"1. c #B53C18",
"2. c #BB3D19",
"3. c #8D0E21",
"4. c #910E22",
"5. c #82142D",
"6. c #9E1025",
"7. c #95152E",
"8. c #9B1128",
"9. c #871B36",
"0. c #A31026",
"q. c #A91625",
"w. c #AD1A24",
"e. c #B01E24",
"r. c #B52322",
"t. c #BD2B21",
"y. c #C6351F",
"u. c #C9391F",
"i. c #C53420",
"p. c #C04019",
"a. c #D5461C",
"s. c #DA5730",
"d. c #B83D4A",
"f. c #854040",
"g. c #F2B5A4",
/* pixels */
"                                                                                                ",
"                                                                                                ",
"                              M 2.2.L                     L 2.2.M                               ",
"                                M =.,.>.                >.p.<.M                                 ",
"                                K *.r.,.                2.a.1.K                                 ",
"                              n a.e.0.3.                2.a.a.a.n                               ",
"                  4.<       -.u.0.0.0.4.    % R R 2     4.t.a.a.a.-.      < 3.                  ",
"                  3.D A A -.:.r.0.0.D N   y / ! R r 4   l &.i.a.a.<.-.A A D 4.                  ",
"                  4.0.0.0.u.r.0.0.3.V     _ _ ) R u 8     V =.i.u.a.a.w.q.0.3.                  ",
"                v 4.0.0.0.0.0.6.3.<         0  .R %         < 4.6.r.u.a.r.q.4.N                 ",
"          3.< c 1.q.0.0.0.0.0.3.            % / R %             3.q.q.q.y.y.6.4., < 3.          ",
"          0.D H u.q.0.0.0.0.F V           y / [ R r 7           V %.0.0.r.r.0.0.A D 0.          ",
"          0.w.r.u.q.0.0.0.F B         9 % _ { _ r u t % %         B F 0.0.0.0.0.0.0.0.          ",
"          0.u.u.0.0.0.0.0..         / | ! R 8 . . 8 R R ! 8         . 0.0.0.0.0.0.0.0.          ",
"          0.w.w.0.0.0.0.0..           0 [ } _ r . 8 t # #           . 0.0.0.0.0.0.0.0.          ",
"          0.0.0.0.0.0.0.0.C G -.;.      ) [ ) R . # % .       ;.-.-.P 0.0.0.0.0.0.0.0.          ",
"          0.0.0.0.0.0.0.0.0.t.a.a.b . o u R R R . . . . . . b a.a.a.a.0.0.0.0.0.0.0.0.          ",
"            F 0.0.0.0.0.0.0.0.w.a.a.f.......} R . . . o } f.a.a.a.t.0.0.0.0.0.0.0.F             ",
"            F 0.0.0.0.0.0.0.0.q.e.#.@.....] U 5.F > . o h p m e.e.q.0.0.0.0.0.0.0.F             ",
"            A 3.3.6.0.0.0.0.0.8.5.+.....} _ X.d.e.l . o 8 % : 5.8.0.0.0.0.0.0.%.3.A             ",
"                  F 4.3.3.0.0.5.u {  .} R [ $.g.a.n . . . . # R 5.0.0.3.3.4.F                   ",
"                  + O O O 0.0.F o t ) ! R % J s.a.M . . . . # R 5.0.0.O O O :                   ",
"                  . . . . > i f _ { _ ! } ] T Z Z ; . . . . . # s i > . . o 8                   ",
"                1 & # o . # 8 ] ..+.' / } _ d k k + . . . X O . 7 % . . . # u :                 ",
"              < 7.O.) r . R [ ....9.Y R R # . . . . . . . - k . . . . . . # a x =               ",
"              7 ......} R z - . . . . . . g ~ ~ ~ ~ g . . . . . . - z . . . . . .               ",
"              # h | ..} R I d y y 7 # . 3 W ~ ~ ~ ~ W 3 . . . . . O - . . . . . .               ",
"              . o ( ` / r ......} h 4 * W ~ ~ ~ ~ ~ ~ W * o . . . . . # . . . . .               ",
"                    . . . ....} R # 5 ~ ~ ~ ~ ~ ~ ~ ~ ~ ^ 5 . . . . . R # .                     ",
"                    8 7 . & % % # q W ~ ~ ~ ~ ~ ~ ~ ~ ~ ~ W 6 . . . . # . .                     ",
"                    % % . 4 # . . g ~ ~ ~ ~ ~ ~ ~ ~ ~ ~ ~ ~ g . . . . . . .                     ",
"                    o o . u % . . g ~ ~ ~ ~ ~ ~ ~ ~ ~ ~ ~ ~ g . . . o . . .                     ",
"            / _     ( ( . o . . . g ~ ~ ~ ~ ~ ~ ~ ~ ~ ~ ~ ~ g . . % u . . .                     ",
"          { _ u   . _ _ . _ 7 @ g ~ ~ ~ ~ ~ ~ ~ ~ ~ ~ ~ ~ ~ ~ g @ % R . . . .   ( j             ",
"          [ t 7 . . / ! . ..y @ ~ ~ ~ ~ ~ ~ ~ ~ ~ ~ ~ ~ ~ ~ ~ ~ @ # 8 . . . . . ) _ r           ",
"          R # . . . r 0 . ..0 $ ~ ~ ~ ~ ~ ~ ~ ~ ~ ~ ~ ~ ~ ~ ~ ~ @ . . . . . . . r ) ..          ",
"          . . o u o _ ` . ! 4 @ ~ ~ ~ ~ ~ ~ ~ ~ ~ ~ ~ ~ ~ ~ ~ ~ $ 4 R . . . o u # # !           ",
"          . . o # . u h . { 9 @ ~ ~ ~ ~ ~ ~ ~ ~ ~ ~ ~ ~ ~ ~ ~ ~ @ 2 ! . . . . # . . %           ",
"          . . . . . y u .  .0 @ ~ ~ ~ ~ ~ ~ ~ ~ ~ ~ ~ ~ ~ ~ ~ ~ @ % t . . . . . . . .           ",
"        o . . . . . _ _ . ! 4 @ ~ ~ ~ ~ ~ ~ ~ ~ ~ ~ ~ ~ ~ ~ ~ ~ @ . o . . . . . . . . .         ",
"      7 u . . . . . t t . | r @ ~ ~ ~ ~ ~ ~ ~ ~ ~ ~ ~ ~ ~ ~ ~ ~ @ % u . . . . . . . . . .       ",
"      # 4 . . . . . r u 2 [ 9 @ ~ ~ ~ ~ ~ ~ ~ ~ ~ ~ ~ ~ ~ ~ ~ ~ @ 2 R . . . . . . . . . .       ",
"      . . . . . . o u ) R R 8 3 ~ ~ ~ ~ ~ ~ ~ ~ ~ ~ ~ ~ ~ ~ ~ ~ $ 2 R . . . # . . . . . .       ",
"              . o u | } R R R Q ~ ~ ~ ~ ~ ~ ~ ~ ~ ~ ~ ~ ~ ~ ~ ~ $ 2 R . . # u o .               ",
"                . % 8 8 R R R Q ^ ~ ~ ~ ~ ~ ~ ~ ~ ~ ~ ~ ~ ~ ~ ~ 3 2 u . . . % .                 ",
"                        8 8 8 w e e e E ~ W g e e e e e e E g e @ # 8 .                         ",
"                                                                                                ",
"                                                                                                "
};
