/* XPM */
static char *result[] = {
/* columns rows colors chars-per-pixel */
"48 48 144 2 ",
"   c #001429",
".  c #00152A",
"X  c #01162B",
"o  c #02172C",
"O  c #02182D",
"+  c #02182E",
"@  c #041C31",
"#  c #041B30",
"$  c #031A30",
"%  c #153B52",
"&  c #296079",
"*  c #2B637C",
"=  c #2C657F",
"-  c #2E6882",
";  c #2D6680",
":  c #285D77",
">  c #22526B",
",  c #1E4B63",
"<  c #1D4961",
"1  c #173F57",
"2  c #13364D",
"3  c #11344B",
"4  c #143950",
"5  c #13374E",
"6  c #153B53",
"7  c #1B465E",
"8  c #1C475F",
"9  c #23556E",
"0  c #265A73",
"q  c #285E77",
"w  c #2A627B",
"e  c #2C667F",
"r  c #2F6A84",
"t  c #32708A",
"y  c #367792",
"u  c #367893",
"i  c #3B809B",
"p  c #408AA6",
"a  c #4796B3",
"s  c #4594B0",
"d  c #63CAEA",
"f  c #5FC3E2",
"g  c #12364C",
"h  c #255770",
"j  c #69D5F5",
"k  c #4C9FBC",
"l  c #1C4860",
"z  c #54AECC",
"x  c #1D4A62",
"c  c #32718A",
"v  c #1E4A62",
"b  c #33718C",
"n  c #4FA5C2",
"m  c #184058",
"M  c #5AB9D7",
"N  c #13384F",
"B  c #5BBCDB",
"V  c #11334A",
"C  c #5ABAD8",
"Z  c #0E2F45",
"A  c #56B2D0",
"S  c #0F3047",
"D  c #4FA5C3",
"F  c #0E2D43",
"G  c #4DA2BF",
"H  c #0C293F",
"J  c #59B7D5",
"K  c #0E2E44",
"L  c #50A7C4",
"P  c #163D54",
"I  c #1D4A63",
"U  c #24566F",
"Y  c #204F67",
"T  c #215068",
"R  c #58B5D3",
"E  c #19425A",
"W  c #4A9CB9",
"Q  c #55B1CF",
"!  c #1E4A63",
"~  c #62C8E7",
"^  c #1F4E66",
"/  c #61C6E5",
"(  c #215169",
")  c #59B7D6",
"_  c #52ABC8",
"`  c #428EAA",
"'  c #4492AE",
"]  c #12354B",
"[  c #0C2A40",
"{  c #3A7F9B",
"}  c #51A8C6",
"|  c #0D2C43",
" . c #53ACCA",
".. c #0D2B42",
"X. c #0B283E",
"o. c #0A273D",
"O. c #66CFEF",
"+. c #68D2F2",
"@. c #0E2E45",
"#. c #68D4F3",
"$. c #65CEEE",
"%. c #4A9DBA",
"&. c #133850",
"*. c #12354C",
"=. c #03192F",
"-. c #5EC1DF",
";. c #52AAC7",
":. c #4592AF",
">. c #4490AC",
",. c #499AB7",
"<. c #4B9FBB",
"1. c #67D2F2",
"2. c #68D3F3",
"3. c #69D4F4",
"4. c #67D0F0",
"5. c #66D0F0",
"6. c #5BBBDA",
"7. c #03192E",
"8. c #1A445B",
"9. c #153A51",
"0. c #113349",
"q. c #103047",
"w. c #173D55",
"e. c #153C54",
"r. c #184158",
"t. c #103249",
"y. c #09243A",
"u. c #072137",
"i. c #051C32",
"p. c #051E33",
"a. c #072036",
"s. c #0F2F46",
"d. c #14384F",
"f. c #194259",
"g. c #103148",
"h. c #0A263D",
"j. c #082439",
"k. c #041C32",
"l. c #072136",
"z. c #072339",
"x. c #082339",
"c. c #082238",
"v. c #061F35",
"b. c #01152A",
/* pixels */
"                                                                                                ",
"          . X .     .                                         X . X . X . X o O + + @ # $ X     ",
"    % & * = - = ; : > , < 1 % % 2 3 % 4 5 6 7 7 8 , 9 9 0 q * w e - r - t y u i p a s d f g     ",
"    h j j j j j j j j j j j j j j j j j j j j j j j j j j j j j j j j j j j j j j j j j j k     ",
"    l j j j j j j j j j j j j j j j j j j j j j j j j j j j j j j j j j j j j j j j j j j z     ",
"    x j j j j j j j j j j j j j j j j j j j j j j j j j j j j j j j j j j j j j j j j j j c     ",
"    v j j j j j j j j j j j j j j j j j j j j j j j j j j j j j j j j j j j j j j j j j j b     ",
"    7 j j j j j j j j j j j j j j j j j j j j j j j j j j j j j j j j j j j j j j j j j j n     ",
"    m j j j j j j j j j j j j j j j j j j j j j j j j j j j j j j j j j j j j j j j j j j M     ",
"    N j j j j j j j j j j j j j j j j j j j j j j j j j j j j j j j j j j j j j j j j j j B     ",
"    V j j j j j j j j j j j j j j j j j j j j j j j j j j j j j j j j j j j j j j j j j j C     ",
"    Z j j j j j j j j j j j j j j j j j j j j j j j j j j j j j j j j j j j j j j j j j j A     ",
"    S j j j j j j j j j j j j j j j j j j j j j j j j j j j j j j j j j j j j j j j j j j D     ",
"    F j j j j j j j j j j j j j j j j j j j j j j j j j j j j j j j j j j j j j j j j j j G     ",
"    H j j j j j j j j j j j j j j j j j j j j j j j j j j j j j j j j j j j j j j j j j j J     ",
"    K j j j j j j j j j j j j j j j j j j j j j j j j j j j j j j j j j j j j j j j j j j L     ",
"    P j j j j j j j j j j j j j j j j j j j j j j j j j j j j j j j j j j j j j j j j j j l     ",
"    m j j j j j j j j j j j j j j j j j j j j j j j j j j j j j j j j j j j j j j j j j j       ",
"    I j j j j j j j j j j j j j j j j j j j j j j j j j j j j j j j j j j j j j j j j j j U     ",
"    Y j j j j j j j j j j j j j j j j j j j j j j j j j j j j j j j j j j j j j j j j j j G     ",
"    T j j j j j j j j j j j j j j j j j j j j j j j j j j j j j j j j j j j j j j j j j j R     ",
"    E j j j j j j j j j j j j j j j j j j j j j j j j j j j j j j j j j j j j j j j j j j W     ",
"    1 j j j j j j j j j j j j j j j j j j j j j j j j j j j j j j j j j j j j j j j j j j Q     ",
"    ! j j j j j j j j j j j j j j j j j j j j j j j j j j j j j j j j j j j j j j j j j j ~     ",
"    ^ j j j j j j j j j j j j j j j j j j j j j j j j j j j j j j j j j j j j j j j j j j /     ",
"    ( j j j j j j j j j j j j j j j j j j j j j j j j j j j j j j j j j j j j j j j j j j B     ",
"    , j j j j j j j j j j j j j j j j j j j j j j j j j j j j j j j j j j j j j j j j j j )     ",
"    8 j j j j j j j j j j j j j j j j j j j j j j j j j j j j j j j j j j j j j j j j j j _     ",
"    P j j j j j j j j j j j j j j j j j j j j j j j j j j j j j j j j j j j j j j j j j j `     ",
"    N j j j j j j j j j j j j j j j j j j j j j j j j j j j j j j j j j j j j j j j j j j '     ",
"    5 j j j j j j j j j j j j j j j j j j j j j j j j j j j j j j j j j j j j j j j j j j )     ",
"    ] j j j j j j j j j j j j j j j j j j j j j j j j j j j j j j j j j j j j j j j j j j L     ",
"    [ j j j j j j j j j j j j j j j j j j j j j j j j j j j j j j j j j j j j j j j j j j {     ",
"    H j j j j j j j j j j j j j j j j j j j j j j j j j j j j j j j j j j j j j j j j j j }     ",
"    | j j j j j j j j j j j j j j j j j j j j j j j j j j j j j j j j j j j j j j j j j j  .    ",
"    ..j j j j j j j j j j j j j j j j j j j j j j j j j j j j j j j j j j j j j j j j j j R     ",
"    X.j j j j j j j j j j j j j j j j j j j j j j j j j j j j j j j j j j j j j j j j j j /     ",
"    o.j j j j j j j j j j j j j j j j j j j j j j j j j j j j j j j j j j j j j j j j j j O.X   ",
"    | j j j j j j j j j j j j j j j j j j j j j j j j j j j j j j j j j j j j j j j j j j +.    ",
"    @.j j j j j j j j j j j j j j j j j j j j j j j j j j j j j j j j j j j j j j j j j j #.    ",
"    @.j j j j j j j j j j j j j j j j j j j j j j j j j j j j j j j j j j j j j j j j j j $.    ",
"    ] j j j j j j j j j j j j j j j j j j j j j j j j j j j j j j j j j j j j j j j j j j %.    ",
"    N j j j j j j j j j j j j j j j j j j j j j j j j j j j j j j j j j j j j j j j j j j &.    ",
"    *.j j j j j j j j j j j j j j j j j j j j j j j j j j j j j j j j j j j j j j j j j j =.    ",
"    4 j j j j j j j j j j j j j j j $.-.;.:.>.a ,.<.;.z 1.2.j j j j j j j j j j 3.4.5.6._ 7.    ",
"    | 0 8.9.0.q.2 w.e.r.8 8 1 9.t.S y.u.i.@ # @ # p.a.| s.d.P f.6 g.h.j.k.@ l.h.z.x.u.c.v.b.    ",
"                                                                                                ",
"                                                                                                "
};
