/* XPM */
static char *ed6966435c3143c3f25d18c3b25e2aa4L08GnOO6MNMvd7gD[] = {
/* columns rows colors chars-per-pixel */
"48 48 2 1 ",
"  c None",
". c white",
/* pixels */
"                                                ",
"                                                ",
"                                                ",
"                                                ",
"        ..            .....           ..        ",
"        ...         .........        ...        ",
"        ...        ...........       ....       ",
"        ....      .............     .....       ",
"        ....     ..............     .....       ",
"        ....     ...............    .....       ",
"        ....    .................   .....       ",
"       ......   .................   ......      ",
"      ........ .................. .........     ",
"     ......................................     ",
"    ..............   ......   ..............    ",
"    .............     ....     .............    ",
"     ............      ...      ............    ",
"     ....  .....       ..       .....  ....     ",
"            ....       ..       ....            ",
"             ...       ..       ...             ",
"              ..       ..       ..              ",
"              ..       ..       ..              ",
"              ...      ...      ..              ",
"               ..     ....     ...              ",
"               ....  ......   ....              ",
"               ..................               ",
"               ........  ........               ",
"                .......  ........               ",
"               ........   .......               ",
"              ....................              ",
"        ..   ......................    ..       ",
"      ....................................      ",
"      ....................................      ",
"      ....................................      ",
"      ....................................      ",
"       ......... ..............  ........       ",
"        .......  ..............   ......        ",
"         .....   ..............   .....         ",
"         .....   ..............    ....         ",
"         .....    .............    ....         ",
"         ....     ............     ....         ",
"         ....      ...........     ....         ",
"         ....      ..........       ...         ",
"          ..        ........        ...         ",
"                      .....                     ",
"                                                ",
"                                                ",
"                                                "
};
