/* XPM */
static char *_682a5628e274843ee07373bb35d4316nbj0Uv39ePHZki52[] = {
/* columns rows colors chars-per-pixel */
"48 48 173 2 ",
"   c None",
".  c #090909",
"X  c #2D4548",
"o  c #334F52",
"O  c #345154",
"+  c #395053",
"@  c #345659",
"#  c #375659",
"$  c #3E575A",
"%  c #3F585B",
"&  c #395A5D",
"*  c #3B6266",
"=  c #3E6165",
"-  c #3E6265",
";  c #3E676B",
":  c #405A5E",
">  c #415B5F",
",  c #515151",
"<  c #565656",
"1  c #5A5A5A",
"2  c #466367",
"3  c #406468",
"4  c #406568",
"5  c #416669",
"6  c #41676A",
"7  c #476468",
"8  c #42686C",
"9  c #476F73",
"0  c #4C6B70",
"q  c #496E72",
"w  c #4D6C71",
"e  c #437175",
"r  c #437176",
"t  c #477176",
"y  c #487276",
"u  c #487277",
"i  c #497378",
"p  c #497478",
"a  c #4A757A",
"s  c #4A767B",
"d  c #4B777B",
"f  c #4B777C",
"g  c #507175",
"h  c #507176",
"j  c #507276",
"k  c #517377",
"l  c #527378",
"z  c #656565",
"x  c #676767",
"c  c #686868",
"v  c DimGray",
"b  c gray42",
"n  c gray46",
"m  c #777777",
"M  c gray48",
"N  c #EB394E",
"B  c #517D82",
"V  c #647D80",
"C  c #D77182",
"Z  c #518085",
"A  c #5B8186",
"S  c #528388",
"D  c #5E858A",
"F  c #5D898E",
"G  c #578B90",
"H  c #5B9197",
"J  c #57939A",
"K  c #59959B",
"L  c #60999F",
"P  c #5A9AA1",
"I  c #5B9BA1",
"U  c #5B9BA2",
"Y  c #5C9DA3",
"T  c #609AA1",
"R  c #619CA2",
"E  c #619DA3",
"W  c #659DA3",
"Q  c #7A9BAE",
"!  c #67A5AC",
"~  c #65ADB4",
"^  c #6AADB4",
"/  c #6BADB4",
"(  c #79ADB4",
")  c #79AEB5",
"_  c #76A6B9",
"`  c #70B5BC",
"'  c #7BB0B8",
"]  c #7BB1B8",
"[  c #7CB1B8",
"{  c #5EB3C6",
"}  c #6EBDC5",
"|  c #7DBDC5",
" . c #6DC0D1",
".. c #74C6D6",
"X. c #7FCFDE",
"o. c #7BD5DE",
"O. c #7DD5DE",
"+. c #7FD5DE",
"@. c #7FD7E0",
"#. c #838383",
"$. c #8B8B8B",
"%. c #8D8D8D",
"&. c gray58",
"*. c #979797",
"=. c #898EA2",
"-. c #829FB2",
";. c #B6B6B6",
":. c #D08394",
">. c #C4A4B3",
",. c #C3A8B6",
"<. c #BBBECB",
"1. c #87C2CA",
"2. c #89C4CC",
"3. c #86CBD3",
"4. c #84D2DA",
"5. c #80D5DE",
"6. c #81D5DE",
"7. c #82D5DE",
"8. c #83D5DE",
"9. c #9AD7DC",
"0. c #82DAE3",
"q. c #84DBE3",
"w. c #84DBE4",
"e. c #8BDBE3",
"r. c #89DBE4",
"t. c #8BDBE4",
"y. c #88DDE5",
"u. c #8EDDE5",
"i. c #8EDEE5",
"p. c #8EDEE7",
"a. c #92DCE4",
"s. c #95DDE5",
"d. c #9CDDE5",
"f. c #8DE1EA",
"g. c #92E1EA",
"h. c #93E2EB",
"j. c #94E2E8",
"k. c #95E2ED",
"l. c #97E5EE",
"z. c #96E4EF",
"x. c #97E5EF",
"c. c #98E5EF",
"v. c #99E6F0",
"b. c #99E6F1",
"n. c #98E8F1",
"m. c #9DEAF3",
"M. c #9FEBF5",
"N. c #9FECF6",
"B. c #B5E6EB",
"V. c #A1ECF4",
"C. c #A1ECF6",
"Z. c #A8F2F5",
"A. c #AAF2F5",
"S. c #A8F2FC",
"D. c #AEF6FD",
"F. c #B0F3FC",
"G. c #B3F4FC",
"H. c #B1F8FC",
"J. c #B3FAFE",
"K. c #B6FBFE",
"L. c #B7FDFF",
"P. c #BBFFFF",
"I. c gray81",
"U. c #C7D6D8",
"Y. c #C3D9DC",
"T. c #C2F6FD",
"R. c #CBF7FD",
"E. c #DCFAFE",
"W. c #E5FBFE",
"Q. c #E7FBFE",
"!. c #EAFCFE",
"~. c #EEFDFF",
"^. c white",
/* pixels */
"                                                                                                ",
"                                                                                                ",
"        M ^.^.%.          ^.^.;.                                I.^.^.                          ",
"        n ^.^.$.          ^.^.;.                                I.^.^.                          ",
"    M n *.^.^.$.    x n x ;.;.#.    $ l g g g l g i l g l       *.;.;.c M 1                     ",
"    ^.^.^.^.^.$.    I.^.^.          ] S.S.S.S.S.S.S.S.S.S.D           ^.^.;.                    ",
"    ^.^.^.^.^.$.    I.^.^.          ( S.S.S.S.S.S.S.S.S.S.A           ^.^.;.                    ",
"    ^.^.^.^.^.$.    I.^.^.    $ ] ( 9.J.J.J.J.J.S.S.S.S.S.1.( [       ^.^.;.                    ",
"    ^.^.^.^.^.$.    I.^.^.    g S.S.J.P.P.P.P.P.S.S.S.S.S.S.S.S.2     ^.^.;.                    ",
"    ^.^.^.^.^.$.    I.^.^.    0 S.S.J.P.P.P.P.P.S.S.S.S.S.S.S.S.:     ^.^.;.                    ",
"    ^.^.^.^.^.$.      c , I.I.Y.S.S.J.P.P.P.P.P.} } X.S.S.S.S.S.U.I.I.< c                       ",
"    ^.^.^.^.^.$.          ^.^.W.S.S.J.P.P.P.P.K.} { ..S.S.S.S.S.~.^.^.                          ",
"    ^.^.^.^.^.$.          ^.^.W.S.S.J.P.G.K.T.J.{ { } S.S.S.S.S.~.^.^.                          ",
"    ^.^.^.^.^.$.              7 S.S.C N N Q } { { { =.N N ;.S.S.+                               ",
"    ^.^.^.^.^.$.              w S.S.:.N N Q { { { { =.N N >.S.S.>                               ",
"    ^.^.^.^.^.$.          6 - F S.S.,.C C | { { { { -.C C <.S.S.B * ;                           ",
"    ^.^.^.^.^.$.          8.6.p.S.S.S.S.S.} { { { { ..S.S.S.S.S.w.o.o.                          ",
"    ^.^.^.^.^.$.          8.8.u.S.S.S.S.S.} { { { { ..S.S.S.S.S.w.o.o.                          ",
"    B.B.B.B.B.V     Z T H v.c.z.g.g.N.S.S.} { { { { ..S.S.n.f.f.@.o.o.J P P I I I I I I I Y     ",
"    8.8.8.6.6.a     / 8.8.S.S.m.6.0.n.S.S.} { { { { ..S.S.y.@.@.o.o.o.o.o.o.O.o.o.o.o.o.o.o.    ",
"    6.8.8.8.8.9     / 8.7.S.S.m.6.8.v.S.S.} { { { { ..S.S.f.@.o.o.o.o.o.o.o.o.o.o.o.o.o.o.o.    ",
"    V.V.c.8.8.3.2.2.4.8.7.P.K.J.C.C.h.e.y.b.v.v.b.b.s.e.y.z.N.N.0.o.o.N.N.N.N.N.N.N.N.0.o.o.    ",
"    S.S.m.8.7.v.S.S.u.6.8.P.P.K.S.S.g.8.0.C.S.S.S.S.m.8.0.v.S.S.w.o.o.S.S.S.S.S.S.S.S.w.o.o.    ",
"    S.S.m.8.7.c.S.S.u.8.8.P.P.K.S.S.g.8.0.C.S.S.S.S.m.7.7.z.S.S.w.o.o.S.S.S.S.S.S.S.S.w.o.o.    ",
"    o.o.O.8.8.v.S.S.u.8.8.S.S.D.P.P.P.P.P.u.8.8.0.8.h.P.P.P.P.P.y.o.o.S.S.S.S.S.E.^.^.s.o.o.    ",
"    o.O.O.6.8.v.S.S.e.6.8.S.S.D.P.P.P.P.P.u.8.8.8.8.s.P.P.P.P.P.y.o.o.S.S.S.S.S.E.^.^.s.o.o.    ",
"    @.O.6.8.8.| ( ( W L L m.m.V.A.A.A.A.Z.e.8.8.8.8.u.Z.Z.Z.Z.Z.q.o.o.S.S.F.T.T.W.^.^.s.o.o.    ",
"    6.8.6.8.8.u           8.8.8.8.8.8.8.8.8.8.8.8.8.7.o.o.o.o.O.o.o.o.S.S.T.^.^.^.^.^.s.o.o.    ",
"    8.8.8.8.8.a           6.6.6.8.8.8.8.8.8.8.8.8.8.6.O.o.O.o.o.o.o.o.S.S.T.^.^.^.^.^.s.o.o.    ",
"    f a a a f X           f u F 8.8.8.8.8.8.8.8.8.6.6.6.O.K e e } o.o.S.S.G.R.R.!.^.^.s.o.o.    ",
"                              3 8.8.8.8.8.8.8.8.8.8.8.8.6.t     ~ o.o.S.S.S.S.S.E.^.^.s.o.o.    ",
"                              6 8.8.8.8.8.8.8.8.8.8.8.8.8.f     ~ o.o.S.S.S.S.S.E.^.^.s.o.O.    ",
"                              6 8.8.S O o ` 8.8.8.8.! O &       ^ 6.6.u.u.e.0.0.a.d.d.q @       ",
"                              6 8.8.a     / 8.8.8.8.L           ^ 8.6.6.8.6.o.o.6.8.8.#         ",
"                              8 8.8.d     / 8.8.8.8.L           / 8.8.8.8.6.o.o.6.6.8.          ",
"                                              . 8.8.L               . 8.6.L                     ",
"                                                8.8.T                 8.8.L                     ",
"                                                L L q                 L T q                     ",
"                                                                                                ",
"                                                                                                ",
"                                                R R u                                           ",
"                                                8.6.L                                           ",
"                                                8.8.L                                           ",
"                                                                                                ",
"                                                                                                ",
"                                                                                                ",
"                                                                                                ",
"                                                                                                "
};
