/* XPM */
static char *aed0d6df3fcf4e00e239e7fea58c632cV1shkbUYe1r83RUr[] = {
/* columns rows colors chars-per-pixel */
"48 48 160 2 ",
"   c None",
".  c #000000",
"X  c #05050A",
"o  c #0A0507",
"O  c #1D0203",
"+  c #120101",
"@  c #020B13",
"#  c #090913",
"$  c #0C0D1B",
"%  c #0C0710",
"&  c #0F111D",
"*  c #220202",
"=  c #2A040A",
"-  c #2A0406",
";  c #35050C",
":  c #39060D",
">  c #3B0202",
",  c #3F1308",
"<  c #230C18",
"1  c #30101A",
"2  c #330A14",
"3  c #0F0F21",
"4  c #001323",
"5  c #021629",
"6  c #02192D",
"7  c #0D1022",
"8  c #111225",
"9  c #13142A",
"0  c #17192E",
"q  c #001D35",
"w  c #161731",
"e  c #171833",
"r  c #191B33",
"t  c #1A1B39",
"y  c #2D1220",
"u  c #2B1C3C",
"i  c #00233F",
"p  c #1D203A",
"a  c #20243F",
"s  c #373737",
"d  c #470303",
"f  c #40090E",
"g  c #5B0406",
"h  c #4C190A",
"j  c #461709",
"k  c #551C0B",
"l  c #5C1F0C",
"z  c #50120E",
"x  c #450710",
"c  c #4F0812",
"v  c #460E1A",
"b  c #540813",
"n  c #4C1F1F",
"m  c #53111B",
"M  c #660A18",
"N  c #6B0B19",
"B  c #7B0C1D",
"V  c #770C1C",
"C  c #611810",
"Z  c #65220D",
"A  c #74260F",
"S  c #59152F",
"D  c #7C0E21",
"F  c #6C1024",
"G  c #601734",
"H  c #5B3029",
"J  c #4A2830",
"K  c #643030",
"L  c #1D1E41",
"P  c #032542",
"I  c #00294B",
"U  c #1F2142",
"Y  c #002E54",
"T  c #00345E",
"R  c #212445",
"E  c #23254A",
"W  c #262A4B",
"Q  c #262B4A",
"!  c #273540",
"~  c #333A40",
"^  c #292D52",
"/  c #272B52",
"(  c #2E325B",
")  c #32325B",
"_  c #3D2447",
"`  c #003763",
"'  c #003866",
"]  c #023A68",
"[  c #303660",
"{  c #333964",
"}  c #383761",
"|  c #442540",
" . c #552341",
".. c #4B2F55",
"X. c #582C50",
"o. c #41345C",
"O. c #5C3D52",
"+. c #3D4B71",
"@. c #494A60",
"#. c #495171",
"$. c #77637A",
"%. c #850D1F",
"&. c #9A1A1F",
"*. c #832912",
"=. c #8F3013",
"-. c #9B2A19",
";. c #A82A18",
":. c #AD3A17",
">. c #A63318",
",. c #B33B17",
"<. c #BB3E19",
"1. c #8D0E21",
"2. c #920E22",
"3. c #85132C",
"4. c #9F1026",
"5. c #93132B",
"6. c #9F1B20",
"7. c #871B36",
"8. c #A31026",
"9. c #AA1725",
"0. c #AE1C24",
"q. c #B01E24",
"w. c #933B38",
"e. c #B62522",
"r. c #BC2B21",
"t. c #AE2738",
"y. c #CB3B1F",
"u. c #C02F20",
"i. c #C33320",
"p. c #D4451C",
"a. c #DE6743",
"s. c #024780",
"d. c #004884",
"f. c #0F5894",
"g. c #025498",
"h. c #025AA2",
"j. c #0562AF",
"k. c #1B72B9",
"l. c #0F73C5",
"z. c #0E80DE",
"x. c #108CF2",
"c. c #1294FF",
"v. c #239CFF",
"b. c #3EA3F7",
"n. c #30A2FF",
"m. c #6AB3F0",
"M. c #7AC3FF",
"N. c #ECAFA5",
"B. c #8BCAFF",
"V. c #9FCEF5",
"C. c #9CD2FF",
"Z. c #A3D5FF",
"A. c #A9D8FF",
"S. c #B5DEFF",
"D. c #DADADA",
"F. c #CEE9FF",
"G. c #D3EBFF",
"H. c #E4F3FF",
"J. c #F3FAFF",
"K. c #FEFFFF",
/* pixels */
"                                                                                                ",
"                                                                                                ",
"                                ,.,.A                     A ,.,.                                ",
"                                *.;.-.A                 A :.<.*.                                ",
"                                . B r.<.                <.p.>..                                 ",
"                              l p.q.8.2.                <.p.p.p.l                               ",
"                  N =       Z >.e.8.8.1.    $ w w $     6.i.p.p.:.Z       = N                   ",
"                  1.b : : h *.r.8.8.2.V   & 9 L L 8 #   V ;.p.p.p.=.h : ; b 2.                  ",
"                  2.8.8.8.y.r.8.8.2.b     Q / R L t w     b 9.p.p.p.p.9.8.8.1.                  ",
"                  1.8.8.8.9.9.8.8.b         r [ L 8         c 8.9.r.p.p.0.8.2.                  ",
"          1.: , :.8.8.8.8.8.8.1.;           8 E L 3           ; 1.9.q.q.i.r.4.%.; ; 1.          ",
"          8.b C y.9.8.8.8.8.1.M           8 w E L 8 #           M 1.8.8.r.i.8.8.b b 8.          ",
"          8.8.0.p.9.8.8.8.8.M             ^ { { L L e             M 8.8.8.8.8.8.8.8.8.          ",
"          8.y.y.8.8.8.8.8..         R [ R L 9 . . 9 L L U 9         . 8.8.8.8.8.8.8.8.          ",
"          8.e.e.8.8.8.8.8..         9 a W ^ U 3 . 9 t 3 8 $         . 8.8.8.8.8.8.8.8.          ",
"          8.8.8.8.8.8.8.8.; z l Z       ^ ( / L . $ 8 .       l l l j 8.8.8.8.8.8.8.8.          ",
"          8.8.8.8.8.8.8.8.8.r.p.p.l     t L L L . . . .     k p.p.p.p.8.8.8.8.8.8.4.4.          ",
"          x %.8.8.8.8.8.8.8.9.r.p.:.K W ( ( / L . . . X R K ,.p.p.i.e.8.8.8.8.8.8.1.x           ",
"            B 8.8.8.8.8.8.8.8.9.r.w.O.{ { ( | G b * . X E J *.r.r.0.8.8.8.8.8.8.8.B             ",
"            N 1.1.8.8.8.8.8.8.4.5...{ { [ E  .t.9.: . X w $ = 5.4.8.8.8.8.8.8.2.1.N             ",
"                x 2.8.8.8.8.8.3.a ) { [ E ( $.N.y.h . . X . % u 3.8.8.8.8.8.2.x                 ",
"                  ; = = = 8.8.D # u E E L 8 H a.p.k . . . . # U 3.8.8.= = = ;                   ",
"                  . . . . M F S 8 R R L E w n >.>.j . . . . X 9 S F M . . . $                   ",
"                . . . . . . 8 R { { ^ R [ { | g g * . . . . . . w 3 . . . # e @                 ",
"              : 5.o.Q w . L ^ { [ 7.G L t # . . . . . . . - d . . . . . . # u g *               ",
"              < X.{ ( W 9 v y 9 9 2 < $ $ 6 q q q q 5 . . + O . . O > . . . $ * +               ",
"              & ^ ) { ( L m 1 $ $ # X . @ P Y Y Y Y P @ . . . . . * d . . . . . .               ",
"              . X Q ( / t { { { ) U 8 @ I Y Y Y Y Y Y I @ . . . . . . X . . . . .               ",
"                    % X X { { ( U $ 5 I Y Y Y Y Y Y Y Y I 4 . . . . . t X .                     ",
"                    $ $ . r r 0 8 5 i Y Y Y Y Y Y Y Y Y T i 4 . . . . 3 X .                     ",
"                    9 8 . # X . . i Y Y Y Y Y Y Y Y Y Y Y Y i . . . . . . .                     ",
"                    . . . t 3 . . i Y Y Y Y Y Y Y Y Y Y Y Y i . . . . . . .                     ",
"            R R     R p . % X . . i Y Y Y Y Y Y Y Y Y Y Y Y i . . $ w . . .                     ",
"          a Q R   . W W . r $ X 6 I Y Y Y Y Y Y Y Y Y Y Y Y I 6 X 3 L . . . .   r r             ",
"          { E t . . Q Q . +.p @ Y Y Y Y Y Y Y Y Y Y Y Y Y Y Y Y @ 3 L . . . . . ^ W             ",
"          L # . . . w w . ) r @ Y Y Y Y Y Y Y Y Y Y Y Y Y Y Y Y @ . . . . . . . r E {           ",
"          # . X 9 . R E . E 8 @ Y Y Y Y Y Y ' d.s.' Y Y Y Y Y Y @ $ w . . . X 9 $ & E           ",
"          . . X 9 X R E . E 8 @ Y Y Y Y ` ' s.j.j.s.' ` Y Y Y Y @ 8 L . . . . 9 X X e           ",
"          . . . . . r e . [ r @ Y Y Y T g.h.l.v.v.l.h.g.T Y Y Y @ $ t . . . . . . . .           ",
"        . . . . . . Q E . U 8 @ Y Y Y ' z.x.b.B.B.b.x.z.] Y Y Y @ X X . . . . . . . . .         ",
"      8 e . . . . . t t . ( 0 4 d.d.d.f.m.M.Z.H.H.Z.M.m.f.d.d.d.4 $ w . . . . . . . . . .       ",
"      $ w . . . . . w r # ( 0 6 j.j.j.k.V.S.G.K.K.G.S.V.k.j.j.j.6 3 L . . . . . . . . . .       ",
"      . . . . . . . w U L L & P c.c.c.n.H.K.K.K.K.K.K.H.n.c.c.c.i 3 L . . . . . . . . . .       ",
"            . . X t ( ( t L L +.C.C.C.A.J.K.K.K.K.K.K.J.A.C.C.C.s 3 L . . # t X . .             ",
"              . X 8 p t U L L #.F.F.F.G.K.K.K.K.K.K.K.K.G.F.F.F.~ 3 L . . X 8 . .               ",
"                      $ t t t @.D.D.D.D.D.D.D.D.D.D.D.D.D.D.D.D.s $ t . .                       ",
"                                                                                                ",
"                                                                                                "
};
