/* XPM */
static char *_6651eb8918348ced6df1608fd32b855TWlrJaV9U2hU8yPP[] = {
/* columns rows colors chars-per-pixel */
"48 48 182 2 ",
"   c None",
".  c #0C0C0D",
"X  c #130D0F",
"o  c #0D100E",
"O  c #18100E",
"+  c #151413",
"@  c #191315",
"#  c #141816",
"$  c #1C1914",
"%  c #1A1619",
"&  c #161B1C",
"*  c #1C1B1B",
"=  c #12131A",
"-  c #231E1C",
";  c #201C16",
":  c #262017",
">  c #23211D",
",  c #2B241E",
"<  c #362A1F",
"1  c #3C2718",
"2  c #1A1B21",
"3  c #211921",
"4  c #1B2125",
"5  c #1F2529",
"6  c #242425",
"7  c #2A2423",
"8  c #2C2A23",
"9  c #222329",
"0  c #2C2C2C",
"q  c #26282E",
"w  c #32322D",
"e  c #232830",
"r  c #2B2C34",
"t  c #2E2F3C",
"y  c #2B3235",
"u  c #2A333C",
"i  c #29353A",
"p  c #333233",
"a  c #33353B",
"s  c #383538",
"d  c #3A3A3A",
"f  c #422D21",
"g  c #43332B",
"h  c #483828",
"j  c #543B2C",
"k  c #443B33",
"l  c #433C38",
"z  c #473232",
"x  c #573C33",
"c  c #3E413F",
"v  c #4B443B",
"b  c #5C4235",
"n  c #544539",
"m  c #5C4B3C",
"M  c #65403A",
"N  c #60513C",
"B  c #70613A",
"V  c #293642",
"C  c #323A4D",
"Z  c #343A44",
"A  c #3E4345",
"S  c #31404E",
"D  c #364044",
"F  c #384859",
"G  c #394555",
"H  c #454545",
"J  c #4A4544",
"K  c #474944",
"L  c #454649",
"P  c #484748",
"I  c #4B4B4C",
"U  c #454D49",
"Y  c #5A4544",
"T  c #4F514E",
"R  c #5B5144",
"E  c #5C5C4C",
"W  c #5A534B",
"Q  c #454D57",
"!  c #585859",
"~  c #62514E",
"^  c #675747",
"/  c #735640",
"(  c #745A43",
")  c #785E4B",
"_  c #675B52",
"`  c #79604B",
"'  c #6C625C",
"]  c #766A5B",
"[  c #545B66",
"{  c #5F6367",
"}  c #5D6E7A",
"|  c #6E6762",
" . c #7D7D7A",
".. c #865A58",
"X. c #876C4B",
"o. c #816C55",
"O. c #826E5C",
"+. c #946F56",
"@. c #8A735C",
"#. c #937B5A",
"$. c #96785E",
"%. c #A2795C",
"&. c #957E6D",
"*. c #997E6E",
"=. c #AB7E62",
"-. c #9C825E",
";. c #9B8363",
":. c #988667",
">. c #9E8871",
",. c #A98B6A",
"<. c #B48C67",
"1. c #B49269",
"2. c #BC946A",
"3. c #B89865",
"4. c #A2947E",
"5. c #AD9B75",
"6. c #B89978",
"7. c #BCA777",
"8. c #C89C79",
"9. c #CFAC6F",
"0. c #D7AD7F",
"q. c #DCA275",
"w. c #CFB875",
"e. c #CFB17D",
"r. c #5B6585",
"t. c #747E86",
"y. c #5D859E",
"u. c #7D8489",
"i. c #838B89",
"p. c #8F908F",
"a. c #838B93",
"s. c #898F94",
"d. c #8E9892",
"f. c #93989B",
"g. c #B69A81",
"h. c #B3A384",
"j. c #BEAF83",
"k. c #A4A091",
"l. c #A3A5A4",
"z. c #B4B1A8",
"x. c #A8AEB1",
"c. c #BDBDBD",
"v. c #B2B5BB",
"b. c #C4A784",
"n. c #CDBA8C",
"m. c #D6B08C",
"M. c #C7B996",
"N. c #DCBF92",
"B. c #E3B989",
"V. c #D8C189",
"C. c #EDC78F",
"Z. c #E6C489",
"A. c #F4CC8F",
"S. c #F6CD83",
"D. c #FBD48E",
"F. c #F6D58E",
"G. c #E7CB92",
"H. c #FACF98",
"J. c #EFD894",
"K. c #F5D594",
"L. c #FAD592",
"P. c #F6D49D",
"I. c #FAD59F",
"U. c #DBCCA6",
"Y. c #D1CAB6",
"T. c #EDD2A2",
"R. c #F7D6AD",
"E. c #F4D7A2",
"W. c #F1D5B0",
"Q. c #B2BBC4",
"!. c #B4C2CB",
"~. c #B9CBD5",
"^. c #D1D2D2",
"/. c #DADCDC",
"(. c #D7D9D9",
"). c #E3E4E5",
"_. c #E7E7E8",
"`. c #EBEAEB",
"'. c #E6E8E9",
"]. c #F1EEEE",
"[. c #F0F0EF",
"{. c #F0EDF1",
/* pixels */
"                                                                                                ",
"                                                                                                ",
"                                                                                                ",
"                                                                                                ",
"                                                                                                ",
"                                                                                                ",
"                                                                                                ",
"                                  6 0 d p p d d p p d                                           ",
"                                0 H H H P H P H H H s d p                                       ",
"                              6 c H I K P H H H P H L v 6 4                                     ",
"                            + d H H T s H H H H I P P I L p                                     ",
"                            p H H I T 3 A H s d K I I H s d p                                   ",
"                            w H H c P 7 p 0 % a w T I a 0 P p 0                                 ",
"                          . y d H p w O.j * - > ; H L & - d 0 0                                 ",
"                          . 0 0 I 6 6 b.1.$ ^ X.O p a % ` , > > 6                               ",
"                          . 0 , A 2 8 e.5.N b.S.x - 8 z V.( % # o                               ",
"                          . 8 > p g , ,.g.7.&.8.w.B - j ^ @.O >                                 ",
"                          . , * 0 ` m ] B #.1.G.L.8.g 7.e.&.$ ,                                 ",
"                          . > # , &.d.v 1 z.{ h.K.0.^ < W ' , :                                 ",
"                          . * % 4 1.Y.m 1 k ! U.D.C.k.<  .! > +                                 ",
"                            # * & 8.W.] j b 4.J.L.J.M.f v W 3 .                                 ",
"                            & $ o 3.K.n.;.1.G.L.L.P.V.( >.R %                                   ",
"                              * X <.D.L.P.L.D.L.L.F.D.Z.T.W X                                   ",
"                                , %.A.D.D.D.L.K.L.L.D.I.U.-                                     ",
"                                    @.M.E.J.Z.9.K.P.R.4.w                                       ",
"                                    u.i.E ( ] -.#.O.n                                           ",
"                                w i { /.c.p.l.                                                  ",
"                                u F t./.^././..                                                 ",
"                              ) r [ Q./._.^.c.w                   b +.:.                        ",
"                              N.U v.!./.`.)./.u.              m $.>.                            ",
"                              b.u.~.!.).`.{.{.c.          x o.*.                                ",
"                              g.x.~.~.'.`.].].`.        M ..                                    ",
"                            -.P.E D [ a.l.l.s.Q | Y ~ _                                         ",
"                            / 2.g u C C e 9 C Q J k                                             ",
"                              - 9 u F C 4 5 a F y                                               ",
"                                9 i G V   q V u *                                               ",
"                                n h 9     * 4 f O.                                              ",
"                                m.,.          q.;.                                              ",
"                              <.8.            B.>.                                              ",
"                              *.'             =.^                                               ",
"                            Q f.v.            r.y.} a.                                          ",
"                                Z             t V u y                                           ",
"                                                                                                ",
"                                                                                                ",
"                                                                                                ",
"                                                                                                ",
"                                                                                                ",
"                                                                                                "
};
