/* XPM */
static char *result[] = {
/* columns rows colors chars-per-pixel */
"48 48 173 2 ",
"   c #0C0C0D",
".  c #130D0F",
"X  c #0D100E",
"o  c #18100E",
"O  c #151413",
"+  c #141816",
"@  c #1C1914",
"#  c #1A1619",
"$  c #161B1C",
"%  c #1C1B1B",
"&  c #201C16",
"*  c #231E1C",
"=  c #262017",
"-  c #23211D",
";  c #2B241E",
":  c #3C2718",
">  c #362A1F",
",  c #1A1B21",
"<  c #211921",
"1  c #1B2125",
"2  c #1F2529",
"3  c #242425",
"4  c #2A2423",
"5  c #2C2A23",
"6  c #222329",
"7  c #26282E",
"8  c #2C2C2C",
"9  c #32322D",
"0  c #232830",
"q  c #2B2C34",
"w  c #2E2F3C",
"e  c #2B3235",
"r  c #29353A",
"t  c #2A333C",
"y  c #333233",
"u  c #33353B",
"i  c #383538",
"p  c #3A3A3A",
"a  c #422D21",
"s  c #43332B",
"d  c #483828",
"f  c #543B2C",
"g  c #473232",
"h  c #443B33",
"j  c #573C33",
"k  c #3E413F",
"l  c #4B443B",
"z  c #5C4235",
"x  c #544539",
"c  c #5C4B3C",
"v  c #65403A",
"b  c #60513C",
"n  c #70613A",
"m  c #293642",
"M  c #343A44",
"N  c #323A4D",
"B  c #364044",
"V  c #3E4345",
"C  c #394555",
"Z  c #384859",
"A  c gray27",
"S  c #4A4544",
"D  c #474944",
"F  c #454649",
"G  c #484748",
"H  c #454D49",
"J  c #4B4B4C",
"K  c #5A4544",
"L  c #4F514E",
"P  c #5B5144",
"I  c #5A534B",
"U  c #5C5C4C",
"Y  c #454D57",
"T  c #585859",
"R  c #675747",
"E  c #62514E",
"W  c #735640",
"Q  c #745A43",
"!  c #785E4B",
"~  c #675B52",
"^  c #79604B",
"/  c #6C625C",
"(  c #766A5B",
")  c #545B66",
"_  c #5F6367",
"`  c #5D6E7A",
"'  c #6E6762",
"]  c #7D7D7A",
"[  c #865A58",
"{  c #876C4B",
"}  c #816C55",
"|  c #826E5C",
" . c #946F56",
".. c #8A735C",
"X. c #937B5A",
"o. c #96785E",
"O. c #A2795C",
"+. c #957E6D",
"@. c #997E6E",
"#. c #AB7E62",
"$. c #9C825E",
"%. c #9B8363",
"&. c #988667",
"*. c #9E8871",
"=. c #A98B6A",
"-. c #B48C67",
";. c #B89865",
":. c #B49269",
">. c #BC946A",
",. c #AD9B75",
"<. c #A2947E",
"1. c #BCA777",
"2. c #C89C79",
"3. c #CFAC6F",
"4. c #DCA275",
"5. c #D7AD7F",
"6. c #CFB875",
"7. c #CFB17D",
"8. c #5B6585",
"9. c #747E86",
"0. c #5D859E",
"q. c #7D8489",
"w. c #838B89",
"e. c #8F908F",
"r. c #838B93",
"t. c #898F94",
"y. c #8E9892",
"u. c #93989B",
"i. c #B69A81",
"p. c #B3A384",
"a. c #A4A091",
"s. c #A3A5A4",
"d. c #B4B1A8",
"f. c #A8AEB1",
"g. c #B2B5BB",
"h. c gray74",
"j. c #C4A784",
"k. c #CDBA8C",
"l. c #D6B08C",
"z. c #C7B996",
"x. c #DCBF92",
"c. c #E3B989",
"v. c #D8C189",
"b. c #E6C489",
"n. c #EDC78F",
"m. c #F6CD83",
"M. c #F4CC8F",
"N. c #F6D58E",
"B. c #FBD48E",
"V. c #E7CB92",
"C. c #EFD894",
"Z. c #F5D594",
"A. c #FAD592",
"S. c #F6D49D",
"D. c #FAD59F",
"F. c #DBCCA6",
"G. c #D1CAB6",
"H. c #EDD2A2",
"J. c #F4D7A2",
"K. c #F7D6AD",
"L. c #F1D5B0",
"P. c #B2BBC4",
"I. c #B4C2CB",
"U. c #B9CBD5",
"Y. c #D1D2D2",
"T. c #DADCDC",
"R. c #E3E4E5",
"E. c #E7E7E8",
"W. c #E6E8E9",
"Q. c #EBEAEB",
"!. c #F1EEEE",
"~. c #F0EDF1",
"^. c None",
/* pixels */
"^.^.^.^.^.^.^.^.^.^.^.^.^.^.^.^.^.^.^.^.^.^.^.^.^.^.^.^.^.^.^.^.^.^.^.^.^.^.^.^.^.^.^.^.^.^.^.^.",
"^.^.^.^.^.^.^.^.^.^.^.^.^.^.^.^.^.^.^.^.^.^.^.^.^.^.^.^.^.^.^.^.^.^.^.^.^.^.^.^.^.^.^.^.^.^.^.^.",
"^.^.^.^.^.^.^.^.^.^.^.^.^.^.^.^.^.^.^.^.^.^.^.^.^.^.^.^.^.^.^.^.^.^.^.^.^.^.^.^.^.^.^.^.^.^.^.^.",
"^.^.^.^.^.^.^.^.^.^.^.^.^.^.^.^.^.^.^.^.^.^.^.^.^.^.^.^.^.^.^.^.^.^.^.^.^.^.^.^.^.^.^.^.^.^.^.^.",
"^.^.^.^.^.^.^.^.^.^.^.^.^.^.^.^.^.^.^.^.^.^.^.^.^.^.^.^.^.^.^.^.^.^.^.^.^.^.^.^.^.^.^.^.^.^.^.^.",
"^.^.^.^.^.^.^.^.^.^.^.^.^.^.^.^.^.^.^.^.^.^.^.^.^.^.^.^.^.^.^.^.^.^.^.^.^.^.^.^.^.^.^.^.^.^.^.^.",
"^.^.^.^.^.^.^.^.^.^.^.^.^.^.^.^.^.^.^.^.^.^.^.^.^.^.^.^.^.^.^.^.^.^.^.^.^.^.^.^.^.^.^.^.^.^.^.^.",
"^.^.^.^.^.^.^.^.^.^.^.^.^.^.^.^.^.^.^.^.^.^.p y y p p y y p 8 3 ^.^.^.^.^.^.^.^.^.^.^.^.^.^.^.^.",
"^.^.^.^.^.^.^.^.^.^.^.^.^.^.^.^.^.^.^.^.y p i A A A G A G A A A 8 ^.^.^.^.^.^.^.^.^.^.^.^.^.^.^.",
"^.^.^.^.^.^.^.^.^.^.^.^.^.^.^.^.^.^.^.1 3 l F A G A A A G D J A k 3 ^.^.^.^.^.^.^.^.^.^.^.^.^.^.",
"^.^.^.^.^.^.^.^.^.^.^.^.^.^.^.^.^.^.^.y F J G G J A A A A i L A A p O ^.^.^.^.^.^.^.^.^.^.^.^.^.",
"^.^.^.^.^.^.^.^.^.^.^.^.^.^.^.^.^.^.y p i A J J D p i A V < L J A A y ^.^.^.^.^.^.^.^.^.^.^.^.^.",
"^.^.^.^.^.^.^.^.^.^.^.^.^.^.^.^.^.8 y G 8 u J L 9 u # 8 y 4 G k A A 9 ^.^.^.^.^.^.^.^.^.^.^.^.^.",
"^.^.^.^.^.^.^.^.^.^.^.^.^.^.^.^.^.8 8 p * $ F A & - * % f | 9 y A p e   ^.^.^.^.^.^.^.^.^.^.^.^.",
"^.^.^.^.^.^.^.^.^.^.^.^.^.^.^.^.3 - - ; ^ # u y o { R @ :.j.3 3 J 8 8   ^.^.^.^.^.^.^.^.^.^.^.^.",
"^.^.^.^.^.^.^.^.^.^.^.^.^.^.^.^.X + # Q v.g 5 * j m.j.b ,.7.5 , V ; 8   ^.^.^.^.^.^.^.^.^.^.^.^.",
"^.^.^.^.^.^.^.^.^.^.^.^.^.^.^.^.^.- o ..R f * n 6.2.+.1.i.=.; s y - 5   ^.^.^.^.^.^.^.^.^.^.^.^.",
"^.^.^.^.^.^.^.^.^.^.^.^.^.^.^.^.^.; @ +.7.1.s 2.A.V.:.X.n ( c ^ 8 % ;   ^.^.^.^.^.^.^.^.^.^.^.^.",
"^.^.^.^.^.^.^.^.^.^.^.^.^.^.^.^.^.= ; / I > R 5.Z.p._ d.: l y.+.; + -   ^.^.^.^.^.^.^.^.^.^.^.^.",
"^.^.^.^.^.^.^.^.^.^.^.^.^.^.^.^.^.O - T ] > a.n.B.F.T h : c G.:.1 # %   ^.^.^.^.^.^.^.^.^.^.^.^.",
"^.^.^.^.^.^.^.^.^.^.^.^.^.^.^.^.^.  < I l a z.C.A.C.<.z f ( L.2.$ % + ^.^.^.^.^.^.^.^.^.^.^.^.^.",
"^.^.^.^.^.^.^.^.^.^.^.^.^.^.^.^.^.^.# P *.Q v.S.A.A.V.:.%.k.Z.;.X @ $ ^.^.^.^.^.^.^.^.^.^.^.^.^.",
"^.^.^.^.^.^.^.^.^.^.^.^.^.^.^.^.^.^.. I H.b.B.N.A.A.B.A.S.A.B.-.. % ^.^.^.^.^.^.^.^.^.^.^.^.^.^.",
"^.^.^.^.^.^.^.^.^.^.^.^.^.^.^.^.^.^.^.* F.D.B.A.A.Z.A.B.B.B.M.O.; ^.^.^.^.^.^.^.^.^.^.^.^.^.^.^.",
"^.^.^.^.^.^.^.^.^.^.^.^.^.^.^.^.^.^.^.^.9 <.K.S.Z.3.b.C.J.z...^.^.^.^.^.^.^.^.^.^.^.^.^.^.^.^.^.",
"^.^.^.^.^.^.^.^.^.^.^.^.^.^.^.^.^.^.^.^.^.^.x | X.$.( Q U w.q.^.^.^.^.^.^.^.^.^.^.^.^.^.^.^.^.^.",
"^.^.^.^.^.^.^.^.^.^.^.^.^.^.^.^.^.^.^.^.^.^.^.^.^.^.s.e.h.T._ r 9 ^.^.^.^.^.^.^.^.^.^.^.^.^.^.^.",
"^.^.^.^.^.^.^.^.^.^.^.^.^.^.^.^.^.^.^.^.^.^.^.^.^.  T.T.Y.T.9.Z t ^.^.^.^.^.^.^.^.^.^.^.^.^.^.^.",
"^.^.^.^.^.^.^.^.^.^.^.^.^.&. .z ^.^.^.^.^.^.^.^.^.9 h.Y.E.T.P.) q ! ^.^.^.^.^.^.^.^.^.^.^.^.^.^.",
"^.^.^.^.^.^.^.^.^.^.^.^.^.^.^.*.o.c ^.^.^.^.^.^.^.q.T.R.Q.T.I.g.H x.^.^.^.^.^.^.^.^.^.^.^.^.^.^.",
"^.^.^.^.^.^.^.^.^.^.^.^.^.^.^.^.^.@.} j ^.^.^.^.^.h.~.~.Q.R.I.U.q.j.^.^.^.^.^.^.^.^.^.^.^.^.^.^.",
"^.^.^.^.^.^.^.^.^.^.^.^.^.^.^.^.^.^.^.[ v ^.^.^.^.Q.!.!.Q.W.U.U.f.i.^.^.^.^.^.^.^.^.^.^.^.^.^.^.",
"^.^.^.^.^.^.^.^.^.^.^.^.^.^.^.^.^.^.^.^.^.~ E K ' Y t.s.s.r.) B U S.$.^.^.^.^.^.^.^.^.^.^.^.^.^.",
"^.^.^.^.^.^.^.^.^.^.^.^.^.^.^.^.^.^.^.^.^.^.^.h S Y N 6 0 N N t s >.W ^.^.^.^.^.^.^.^.^.^.^.^.^.",
"^.^.^.^.^.^.^.^.^.^.^.^.^.^.^.^.^.^.^.^.^.^.^.^.e Z u 2 1 N Z t 6 * ^.^.^.^.^.^.^.^.^.^.^.^.^.^.",
"^.^.^.^.^.^.^.^.^.^.^.^.^.^.^.^.^.^.^.^.^.^.^.^.% t m 7 ^.m C r 6 ^.^.^.^.^.^.^.^.^.^.^.^.^.^.^.",
"^.^.^.^.^.^.^.^.^.^.^.^.^.^.^.^.^.^.^.^.^.^.^.^.| a 1 % ^.^.6 d x ^.^.^.^.^.^.^.^.^.^.^.^.^.^.^.",
"^.^.^.^.^.^.^.^.^.^.^.^.^.^.^.^.^.^.^.^.^.^.^.^.%.4.^.^.^.^.^.=.l.^.^.^.^.^.^.^.^.^.^.^.^.^.^.^.",
"^.^.^.^.^.^.^.^.^.^.^.^.^.^.^.^.^.^.^.^.^.^.^.^.*.c.^.^.^.^.^.^.2.-.^.^.^.^.^.^.^.^.^.^.^.^.^.^.",
"^.^.^.^.^.^.^.^.^.^.^.^.^.^.^.^.^.^.^.^.^.^.^.^.R #.^.^.^.^.^.^./ @.^.^.^.^.^.^.^.^.^.^.^.^.^.^.",
"^.^.^.^.^.^.^.^.^.^.^.^.^.^.^.^.^.^.^.^.^.^.r.` 0.8.^.^.^.^.^.^.g.u.Y ^.^.^.^.^.^.^.^.^.^.^.^.^.",
"^.^.^.^.^.^.^.^.^.^.^.^.^.^.^.^.^.^.^.^.^.^.e t m w ^.^.^.^.^.^.M ^.^.^.^.^.^.^.^.^.^.^.^.^.^.^.",
"^.^.^.^.^.^.^.^.^.^.^.^.^.^.^.^.^.^.^.^.^.^.^.^.^.^.^.^.^.^.^.^.^.^.^.^.^.^.^.^.^.^.^.^.^.^.^.^.",
"^.^.^.^.^.^.^.^.^.^.^.^.^.^.^.^.^.^.^.^.^.^.^.^.^.^.^.^.^.^.^.^.^.^.^.^.^.^.^.^.^.^.^.^.^.^.^.^.",
"^.^.^.^.^.^.^.^.^.^.^.^.^.^.^.^.^.^.^.^.^.^.^.^.^.^.^.^.^.^.^.^.^.^.^.^.^.^.^.^.^.^.^.^.^.^.^.^.",
"^.^.^.^.^.^.^.^.^.^.^.^.^.^.^.^.^.^.^.^.^.^.^.^.^.^.^.^.^.^.^.^.^.^.^.^.^.^.^.^.^.^.^.^.^.^.^.^.",
"^.^.^.^.^.^.^.^.^.^.^.^.^.^.^.^.^.^.^.^.^.^.^.^.^.^.^.^.^.^.^.^.^.^.^.^.^.^.^.^.^.^.^.^.^.^.^.^.",
"^.^.^.^.^.^.^.^.^.^.^.^.^.^.^.^.^.^.^.^.^.^.^.^.^.^.^.^.^.^.^.^.^.^.^.^.^.^.^.^.^.^.^.^.^.^.^.^."
};
