/* XPM */
static char *_ec1e0c63c6047ecc4c5621bba1d2f4eJFLfPYf7edLmEQ2g[] = {
/* columns rows colors chars-per-pixel */
"48 48 52 1 ",
"  c #000006",
". c #01000C",
"X c #010014",
"o c #02001C",
"O c #030024",
"+ c #03002B",
"@ c #030133",
"# c #04003E",
"$ c #050143",
"% c #030845",
"& c #05024A",
"* c #030A4C",
"= c #050652",
"- c #040A53",
"; c #040D5B",
": c #04105D",
"> c #050D62",
", c #050F6B",
"< c #041264",
"1 c #04126B",
"2 c #041574",
"3 c #041875",
"4 c #051679",
"5 c #041A7C",
"6 c #041C83",
"7 c #051D8A",
"8 c #051F94",
"9 c #042087",
"0 c #04218C",
"q c #042393",
"w c #04269A",
"e c #04289D",
"r c #0427A0",
"t c #042AA3",
"y c #042DAB",
"u c #0430AF",
"i c #052EB4",
"p c #0431B3",
"a c #0434BC",
"s c #0437C2",
"d c #0439C6",
"f c #043CCB",
"g c #033FD2",
"h c #0340D6",
"j c #0342DA",
"k c #0346E3",
"l c #0348E6",
"z c #024AEC",
"x c #014DF4",
"c c #004EFE",
"v c #0250F7",
"b c #0051FE",
/* pixels */
"@@@+@+@++++++++++OOOOOOOoOoooooXXXXX.......     ",
"@@@@@@@@@@@+@+++++++OOOOOOoOoooooXXXXXX......   ",
"&%$$%####@#@@+@@++++O++OOOOOOoooXooXXXX....     ",
"5332111<<;;;-*%@@@@+@++OOOOOOOoooooXXXX.X.....  ",
"ffdssaapitrw053,<-%#@@@++O+OOOOOooooXXXXX.....  ",
"bbbbbbbbvvxzljfat03<-%@@@@+OOOOOoOooooXX.XX.... ",
"ccccccbcccbbbbbbvlfiq3;*#@@++OOOOOooooXXXXX.....",
"xxcvbbbbbbbbbbbbbvbbzhe5:*@@@+++OOOooooXXXX.....",
"iiiiiassddggkzvvbccccbxgt5:%@++++OOOooooXXXX.XX.",
",1,,222446688rishzcbcccbvhe1*#@++OOOOOoooXXXX...",
"&&===&======>>,46wphzbbcvbzp5:#@+++OOOoooXXXX...",
"&&&&$&$$$$$&$$$&->16rdzbvbbvh9:%@+++OOoooooXXXX.",
"&&$&$&$$$$$$$$$#$$&-<3wdvbbvvh0:%@+OOOOOoooXXXX.",
"&&$&&$&$$$$$$$$###$$$->5tjbvvbjq:@@++OOOooooXXX.",
"&&$$$&$$&$$$$#$$######$-1qhvbvbj9:#@++OOOooooXXX",
"&&&&&$&$$$$$$$$#$$#####$*;9svbbbh5-@+OOOoooooXXX",
"&&&$&&&$$$$$$$$##$##$####%;5avbcvp3%@++OOooooXXX",
"&&&&$$&$&$$$$$$$$#########$;9dbcbze:#++OOOOooXXX",
"&&&&&$&$$$$$$$$$#$$########$:0jbcbh5*@++OOOooooX",
">=&&&&$&&$$$$$$$$#$#$#######%1rzbvvu<@++OOOooooX",
"74,==&$$$&$$$$$$$$$########@$*5sbbbh5*@++OOoooXX",
"gi84,=&&$$&$$$$$$####$$######$:qlvbvt:@++OOOOooo",
"cvki8,>&$$$$$$$$$$$$#$########*3hvvbh3%+OOOOoooX",
"ccccgy4>=&&$$$$#$#############$>evbbl5*+++OOOooo",
"vvvcvxa7,=&$$$$$$$$###$########-6jbcxt:@+++OOooo",
"skvvccvfq1=&$$$$#$#$$##########%2sbcba<#++OOOooo",
"48szvccvhq,=$$$$$$$###$#$######$<yccbh3#++OOOoOo",
"=>4rjvccbh0,&$$$$###$##########$;wzcbj5%++OOOOoo",
"#%=18dvbcbf7;&$$##############@#-qlcbl9*+++OOOoo",
"###&>7dvccva4=&#$##$##$#########-7kcbl0*@++OOOoo",
"@#@#$;7dbcbzr1&$################-7jbbz0*@++OOOOo",
"@@#@#$;8jbcbh6-&##$#############-6jbczq*@++OOOoo",
"@@@@@#$<rzbbvy1&$#########@###@#=6jbbzq-+++OOOOo",
"@@@@@##*4dvvbj6;################=5jbbzq-@++OOOOo",
"@@@@@@@#;qlvbvt>$###############*6hbbve-@+++OOOo",
"@@@@@@@#*4dvbvs4=####@##########=6hbbze-@+++OOOo",
"+@+@@@@@$:tvbbj7-$###########@#@*6gbcxe-@+++OOOo",
"++@@@@@@@-9jbcxr:$#######@######*5gbcxe;@++O+OOo",
"+++++@@@@&2dbcbi1&##############&5gccxr:@+++OOOo",
"+++@@@@@@$,ibcbd2=##############*5gccxt:@+++OOOo",
"+++++@@@@#;txvbh6=###$##########*5fbbve:@+++OOOo",
"OO++++@@@@;qzvbk7-$#############&5fbbvt:@++OOOOO",
"O++++@@+@@-0kbblq-$#############*3fbcvt:#+++OOOo",
"OO++++@+@@*9jbbzw;$$#$#$#$$####$&2dbcxt:@+++OOOo",
"OO+++++@@@%5gbbze>$##$#$#$##$###&4sbbvu:#++O+OOO",
"oOOOO++@@@%5gbcxt>$#######$#####&4sbbvu:@+++OOOo",
"oOOO+++@@@$3fbcxy>&#########$##$&2sbbbp<@@+OOOOo",
"ooOOO++++@$2dbcvy,$##$#$#$######%4sbbbp<@+++OOOO"
};
