/* XPM */
static char *_fe1d1af6996400edf9a69f0e5edd13aHTID17t9FuzCQnWv[] = {
/* columns rows colors chars-per-pixel */
"48 48 81 1 ",
"  c #01000D",
". c #010014",
"X c #02001C",
"o c #030024",
"O c #03002A",
"+ c #030132",
"@ c #03053B",
"# c #050044",
"$ c #040846",
"% c #050149",
"& c #040849",
"* c #050552",
"= c #040D55",
"- c #050B59",
"; c #04105D",
": c #050E63",
"> c #041265",
", c #05126D",
"< c #051371",
"1 c #041975",
"2 c #05177B",
"3 c #041B7D",
"4 c #041D84",
"5 c #041D8A",
"6 c #04218B",
"7 c #052394",
"8 c #04269B",
"9 c #042AA4",
"0 c #042DAA",
"q c #052EB0",
"w c #0332B2",
"e c #0530B3",
"r c #0530B5",
"t c #0431B5",
"y c #0532B8",
"u c #0336BB",
"i c #0335BD",
"p c #0436BE",
"a c #0338BF",
"s c #0535C0",
"d c #0535C1",
"f c #0536C1",
"g c #0536C2",
"h c #0437C3",
"j c #0439C6",
"k c #0538C7",
"l c #033BC8",
"z c #043BC9",
"x c #033DCF",
"c c #043ECE",
"v c #043ECF",
"b c #053DD1",
"n c #053ED1",
"m c #033FD6",
"M c #043FD5",
"N c #0340D2",
"B c #0340D6",
"V c #0341D7",
"C c #0442D8",
"Z c #0343DD",
"A c #0445DF",
"S c #0444E0",
"D c #0347E5",
"F c #0448E7",
"G c #0349E9",
"H c #024AE9",
"J c #034BEC",
"K c #024DF4",
"L c #024EF5",
"P c #024DF6",
"I c #024FF8",
"U c #014FFA",
"Y c #004CFE",
"T c #014FFF",
"R c #0150FB",
"E c #0051FC",
"W c #0151FC",
"Q c #0151FF",
"! c #0152FF",
"~ c #0053FF",
"^ c #0153FF",
/* pixels */
"XoXooOOO+&4vRYWg2*@###@#@######%,eKYYB4&+OOoOooo",
"XXooOoOOO&3v^YWg2*########@#@##%,rKTEM4&+OOOoooX",
"oooooOOO+&4v^YRg1*#@#@##@####@#%,rLEEM4&+OOoOooo",
"XXoooOOO+&3v^YRg2*####@###@####%,rPYEC5&+OOoooXX",
"XXooOOOO+&3vEYEp2%#####@#######%,tLERB4&+OOoooXo",
"oXoooOOO+$3NEY!g2*#@#@###@#@@##%,qLYEB4&+OOOoOoo",
"XXooOoOO+&3vEYEg2&##########@##%,tLEEC6$OOOooooX",
"XooooOOO+&3N^YEg2*#####@#######%,tLYEB4&+OOOOooo",
"oooooOOO+$3n^YEg2%############+%,eLYYB4&+OOOoooo",
"XXooOoOO+&3v^YEg2##############%,eKTRB4&OOOooooX",
"XXooOOOO+$4vEYYg2*#############%,eLYRB4&+OOOOooX",
"oXoooOO++&3vEYEg2*#####%#######*,yLYEC5&+OOOoooo",
"XooooOOO+&4vEYEg2*####%###%%###*<rLYEM5&+OOOoooX",
"XXoooOO++&3vEYEg2*######%#%####*,rLTEM4&+OOOOooo",
"XooooOOO+&4vEYEg2*##%%%##%%####*<rLYEC4&+OOOoooo",
"XoooOOOO+&4vEYEj2*%##%#%#%%#%##*<rLTEm5&+OOOoooX",
"XXoooOOO+&3bTT!s2=%%%%%%%##%%%#%<qIYYM4&++OOOooo",
"XoooOO+O+%3bTT!s2*%%#%#%%%%%%#%*<yIYEC5&+OOOoooX",
"oXoooOO++&3bTTTp3*%%%%%%%%%%%%%*<qIEEM5&@OOOoooo",
"XooooOO++&4nTT!g2*%%#%%#%#%#%%%%<qLYEM4&OOOooooX",
"XXoooOOO+&4N!TTp2*%%%%%%%%%#%#%%<qLYRM5&+OOOoooX",
"XXooOoOO+&4nTT!g2*%%%%%%%%%%%%%*<yLYEM6&+OOooooX",
"XXoooOOO+&4c!TIg2*%%%%%%%%%%%%%%,qWEEB4&+OOOOooX",
"XXooOOOO+&3c!TIg2*%%%%#%%%#%%%%*<tLYEB4&+OOOoooX",
"XXXooOOO+&4nI!Ik2*%%%#%##%#%%%#%,tLYYC4&+OOooooX",
"XXXooOOOO&3N!TIg2*##%%%%%%%%%#%*,tLYRB4&OOOOooXX",
"XXXoooOO+&1N!TIg2*#%%%%%##%%%%%%<tIREB4&+OOooXoX",
"XXooooOOO$1N!TIk4*%%###%%%%###%*<yLYEC4$OOooooXX",
"XXXXoOOO+$3NIIIg2*##%%#%#%%#%##*1sIYEv3$OOOooXXX",
"XXXooooO+#1NII!z4*###%%#%#%###%-4vYYEj1@OOooooXX",
".XXooooOO#<gIIEn5*%#########%%%:8JEEIw>@OoooXXXX",
".XXXoooOO@,yIIIA7:%##%##%####%-2gEYED8=@OOooXXXX",
"XXXXoooOO@;8JWWL0<%%#########-,9JEYEz2$+OoooXXXX",
"..XXXoooO+&6CWT!B7:%#######%=<8SYYEJ8>@OOooXXXX.",
".XXXoXoooO$>eRYRRj5>=%*%%*=:40SEYYEp1&+OooooXXX.",
"...XXXooOO@=6CEYYRB941,><159zJEYEEv6=@OOOoXXXXX.",
"...XXXoooOO$>9FEYEEJBjytpjCJEEEEEB7:@+OOooXX.X..",
"...XXXXooOO@&10JEREYRLLLLLYEEY^Ln7>$@OOOooXXX...",
"...XXXXooOOO@&19ZREREE^EEEEYE!Ft6;$@OOoooXXXX...",
"....XXXXooOO+@&>6iALEY^^EEILSg71=@+OOOoooXX.X...",
" ....XXXooooOO@$=>60pNNNNNu961=$@@OOoooXXXX.... ",
". ....XXXXoooOOO@$&;;11311>=&@@+OOOOoooXXXX.... ",
"   ....XXXXoooOOOOO@@@$$@@@@+OOOoOooooXX......  ",
"  .....XXXXoooOoOoOOooOOooOOOoOooooooXXXX.....  ",
"    .....XXXoooooooOOOoOOOoOooOoooXXXXXX....    ",
"     .....XXXXXooooooooooooooooooooXXX.....     ",
"   . . ..XXXXXXXXooooooooooooooXXXXXXX....      ",
"       .....XXXXXoXXoXXoXoXoXXX.XXXX.X...       "
};
