/* XPM */
static char *_a60ca2698cb4e6cdbef88563b25e19fXeaPtmxavH68dJSy[] = {
/* columns rows colors chars-per-pixel */
"48 48 99 2 ",
"   c #000006",
".  c #01000C",
"X  c #010014",
"o  c #02001C",
"O  c #030024",
"+  c #03002B",
"@  c #030133",
"#  c #04003E",
"$  c #050143",
"%  c #030845",
"&  c #05024A",
"*  c #030A4C",
"=  c #050652",
"-  c #040A53",
";  c #040D5B",
":  c #04105D",
">  c #050D62",
",  c #050F6B",
"<  c #041264",
"1  c #04126B",
"2  c #041574",
"3  c #041875",
"4  c #051679",
"5  c #041A7C",
"6  c #041C83",
"7  c #051D8A",
"8  c #051F94",
"9  c #042087",
"0  c #04218C",
"q  c #042393",
"w  c #04269A",
"e  c #04289D",
"r  c #0427A0",
"t  c #042AA2",
"y  c #042BA4",
"u  c #042CA8",
"i  c #052CAE",
"p  c #052CAF",
"a  c #042FAE",
"s  c #042EAF",
"d  c #0430AF",
"f  c #052FB4",
"g  c #052FB6",
"h  c #0431B2",
"j  c #0431B5",
"k  c #0531B8",
"l  c #0433B8",
"z  c #0533BC",
"x  c #0434BC",
"c  c #0535BF",
"v  c #0437C2",
"b  c #0536C3",
"n  c #0438C4",
"m  c #0439C5",
"M  c #0439C6",
"N  c #0538C7",
"B  c #043AC7",
"V  c #043BC7",
"C  c #033BC9",
"Z  c #043BCA",
"A  c #033CCB",
"S  c #053BCD",
"D  c #033DCC",
"F  c #043CCD",
"G  c #033FD3",
"H  c #043FD3",
"J  c #0341D5",
"K  c #0340D6",
"L  c #0341D8",
"P  c #0343DA",
"I  c #0442DB",
"U  c #0346E3",
"Y  c #0347E6",
"T  c #0248E5",
"R  c #0348E6",
"E  c #024AE9",
"W  c #024AEB",
"Q  c #024AEC",
"!  c #024CEF",
"~  c #024BF0",
"^  c #024DF2",
"/  c #014DF4",
"(  c #024DF4",
")  c #014DF7",
"_  c #024EF7",
"`  c #024EF8",
"'  c #024EF9",
"]  c #014FFA",
"[  c #004CFE",
"{  c #004EFF",
"}  c #004FFF",
"|  c #0250F7",
" . c #0150FB",
".. c #0151FC",
"X. c #0151FD",
"o. c #0150FF",
"O. c #0151FF",
"+. c #0052FE",
"@. c #0052FF",
/* pixels */
"      .     . . . . . . X X X o X X o o o O o o O O O O O O + + + + + + + + + @ + + @ @ @ @ + @ ",
"        . . . . . X X X X X X X o o o o o o O O O O + O + O + + + + + @ + @ + + @ @ @ @ @ @ @ @ ",
"        . . . . X . X X X o X o o o o O O O O O O O + + + + + + + + @ @ @ @ # # # # # % $ % % $ ",
"    . . . . . . . X X X o X o o o o O O O O + O + + + + + @ @ @ # % % - ; ; : < < 1 1 1 2 2 5 5 ",
"  . . . . . . X X X X X X o o o O O O O + + + + + @ + @ # * * : 1 3 6 0 w e i f l z c b b N Z S ",
".   . . . X X X X X o o o O o O O O O O O + + + @ @ % - < 5 0 y z S I U ! _ | '  . .X.X.o.o.o.o.",
"  . . . . X X X X X o o o O O O O O + + + + @ # * : 3 9 d J E | _ o.o.o.' ' ' ' X.X.X.o.o.] ] } ",
". . . . X . X X X o o o o O O O O + + + @ # * < 5 y J E | +.+.+. . .o.o.o.o.o.' X.X.X. .|  .' ' ",
". . . X X X X X o o o o O O O O + + + # % : 5 y J | +.} } } } } _ _ ^ R I K S S N z z g f f p p ",
". . X . X X X o o o o O O O + + + @ # * 1 w Z / +.+.} +.+.] E L c a r q 7 6 4 4 4 2 2 2 , , , , ",
". X . X X X X o o o O O O + + + @ # - 5 h E +.} +.+.+.! G j w 6 4 , > = = = = = = & = & = & & = ",
". . X X X o o o O o O O O + + @ # : 9 n } +.[ } +.E n e 6 1 > = = & $ $ $ $ $ $ $ & $ & & & $ & ",
". X X X X o o o o O O + + + @ # < 0 J +.} } +.~ Z w 4 < - & $ $ # $ $ $ $ $ $ & $ $ & $ & $ & & ",
"X X X o X o o o O O O O + @ # : e J +.+.} +.I u 5 > * $ $ # # # # $ $ # $ $ $ $ $ & $ & & $ & & ",
". X X X o o o O O O + + + # : 9 J +.+.+.+.Z 0 1 - $ # # # # $ # $ $ $ $ $ $ $ $ $ $ & $ & & $ & ",
"X X X o o o o O O O + + @ - 5 J +.+.+.| v 6 ; * $ # # $ # # # $ $ $ $ $ $ $ $ & $ & $ & $ & & & ",
"X X X o o O O O O O @ @ % 2 f ] +.+.] x 5 ; $ $ # # # # # # $ # $ # $ $ $ $ $ & $ $ & & & & & & ",
"X X o o o o O O + + + @ : e E } +.+.n 6 ; % # # # # # $ # $ # $ $ $ $ $ $ $ $ $ $ & & $ $ & & & ",
"X o o o o o O O O @ @ * 5 J +.[ +.I 0 ; $ # # # # # # # # # # $ $ $ $ $ $ $ $ $ & $ $ & & & & = ",
"X o o o o O O O O + # : u | } } ! y 1 % # @ # # # # # # # # $ $ $ $ $ $ $ $ $ & $ & $ & & = = > ",
"X X o o o O O O + @ * 5 G +.} +.v 5 * # # # # # # $ # $ $ $ $ # $ $ $ $ $ $ & $ & $ & & = , 4 7 ",
"o o o o O O O + + @ : y / } } E q ; $ # # # # # # # # # # # $ $ $ $ $ $ & $ $ $ & & = > 4 8 z H ",
"X o O o O O O + + # 3 J +.} +.N 3 * # # # # # # # # # # # $ $ # $ $ $ $ $ $ $ & & = 4 8 f U ' ' ",
"o o o O O O + + @ % 9 L } } ~ e > $ # # # # # # $ # # # $ # $ $ $ $ $ $ & $ $ = > 6 f H ' ' ' ' ",
"o o o O O O + + @ : t | +.+.I 6 * # # # # # # $ # # # # $ # $ $ $ $ $ $ $ $ = , 7 c ! o.} } o.o.",
"o o o O O O + + # < l +.+.+.v 3 & # # # # # # # # # $ # # $ # $ $ $ $ $ & = , q S  .} } } o.U c ",
"o o o O O O + + % 3 D +.} / a < $ # # # # # # # $ # $ # $ # $ $ $ $ $ $ * , q H o.} } o.R b q 4 ",
"o o O O O + + + % 5 I +.} ! w ; # # # # # # # # # # # # # # $ # $ $ $ * , 8 H +.} } o.I t 4 ; * ",
"o o O O + O + + * 6 Y +.+.R q - # # # # # # # # # # # # # # # $ # $ & ; 7 S +.} }  .N 0 1 - $ # ",
"o o O O O + + @ * 0 R +.+.I 7 - # # # # # # # # # $ # # # $ # # $ & = 5 k _ } }  .b 7 ; & # # # ",
"o O O O O O + @ * q Y } +.I 7 - # # # # # # # # # # # $ # # $ # $ % 1 r Q +.} +.Z 9 ; $ # # @ # ",
"o o O O + + + @ - q Y } +.I 6 * # # # # # # # # # # # # # $ # # $ ; 6 H } ] +.I 0 : $ # @ # @ @ ",
"O o O O + + + + : e E +.+.P 9 * # # # # # # # # # # @ # # # # # * 1 a / } } ! r < $ # @ # @ @ @ ",
"o O O O O + + @ * e E +.+.P 6 * @ # # # # # # # # # # # # # # # = 6 J +.+.+.v 3 * # @ @ @ @ @ @ ",
"o O O O O + @ @ * e E +.+.J 6 * # # # # # @ # # # # # # # # $ $ > y ~ } +.R q : % # @ @ @ @ @ @ ",
"O O O O + + + @ : e ~ +.+.J 6 = # # # # # # # # # # # # # # $ * 4 v } } +.n 5 $ @ @ @ @ @ @ @ + ",
"o O O O + + + @ ; e ~ } +.G 6 * # @ # # # # # # # # # # # # $ - 7 I } } ~ y : % @ @ @ @ @ + @ + ",
"o O O + O + + @ ; r / } +.J 5 * # # # # # # # # # @ # # # # $ > t ~ } +.U 7 = # @ @ @ @ + @ + + ",
"o O O O + + + @ - e ~ +.} G 5 & # # # # # @ # # # # # # # # * 1 j +.} } n 3 % @ @ @ @ @ + @ + + ",
"o O O O O + + @ : y ~ } +.G 5 = # # # # # # # # # # # # # # & 2 n +.} ] j < $ @ @ @ + @ + + + + ",
"o O O + O + @ @ : t / } +.S 5 * # # # # # # # # # # $ # # # = 6 K o.+.^ t ; # @ @ @ @ + + + + O ",
"o O O O O + + @ : t / } +.Z 4 & # # # # # # # # # # # # # $ = 7 U o.} Q q ; @ @ @ @ + @ + + O + ",
"o O + O + + + # : y / +.+.Z 4 * # # # # # # # $ # $ $ # # $ ; q Y } +.U 0 - @ @ @ @ + + + + + O ",
"o O O O O + + @ : y  .+.+.n 2 & $ # # # # # # # # # # # # $ ; w Q } +.I 6 * @ @ @ @ + + + + O O ",
"O O O O O + + @ ; u / } } n 3 & # $ # $ # # # # # # # # # $ ; t ^ } o.K 5 * @ @ + @ + @ O + O O ",
"o O O O + + + # < a ] } } v 2 & # # # # # $ # # $ # # $ $ $ > t ^ } o.S 3 % @ @ @ + + O O O O O ",
"O O O + O + + # ; f ] } } v 2 * # # # $ $ # # $ # # # # # $ < u _ } +.Z 3 $ @ @ + + + + O O o o ",
"o O O O + + + @ < h ] } +.v 2 & $ # # # # # # # $ # # $ # % 1 d _ } +.Z 3 # + @ + + + O O O O o "
};
