/* XPM */
static char *_bcd7d58660f4e2aee25895315fa232a5ohVK7YroAJxP9Fc[] = {
/* columns rows colors chars-per-pixel */
"48 48 99 2 ",
"   c #000006",
".  c #01000C",
"X  c #010014",
"o  c #02001C",
"O  c #030024",
"+  c #03002B",
"@  c #030133",
"#  c #04003E",
"$  c #050143",
"%  c #030845",
"&  c #05024A",
"*  c #030A4C",
"=  c #050652",
"-  c #040A53",
";  c #040D5B",
":  c #04105D",
">  c #050D62",
",  c #050F6B",
"<  c #041264",
"1  c #04126B",
"2  c #041574",
"3  c #041875",
"4  c #051679",
"5  c #041A7C",
"6  c #041C83",
"7  c #051D8A",
"8  c #051F94",
"9  c #042087",
"0  c #04218C",
"q  c #042393",
"w  c #04269A",
"e  c #04289D",
"r  c #042AA1",
"t  c #0429A2",
"y  c #042BA3",
"u  c #0529A4",
"i  c #042AA4",
"p  c #042BA4",
"a  c #042CA5",
"s  c #042CA6",
"d  c #052BA9",
"f  c #042DA8",
"g  c #052DAD",
"h  c #0430AF",
"j  c #052EB4",
"k  c #0431B1",
"l  c #0431B3",
"z  c #0431B5",
"x  c #0434BC",
"c  c #0437C1",
"v  c #0436C2",
"b  c #0437C3",
"n  c #0438C3",
"m  c #0439C6",
"M  c #043AC7",
"N  c #043AC8",
"B  c #043AC9",
"V  c #043ACA",
"C  c #043BCA",
"Z  c #043BCB",
"A  c #043DCD",
"S  c #033FD1",
"D  c #033FD4",
"F  c #0340D5",
"G  c #0341D5",
"H  c #0341D6",
"J  c #0342D9",
"K  c #0342DA",
"L  c #0343DB",
"P  c #0343DD",
"I  c #0344DE",
"U  c #0345DF",
"Y  c #0344E0",
"T  c #0346E3",
"R  c #0346E4",
"E  c #0348E6",
"W  c #0348E8",
"Q  c #0249E9",
"!  c #024AEB",
"~  c #024BEC",
"^  c #024BED",
"/  c #024BEE",
"(  c #024CF1",
")  c #024DF1",
"_  c #024DF2",
"`  c #024DF3",
"'  c #014EF5",
"]  c #024EF6",
"[  c #014FF9",
"{  c #004CFE",
"}  c #004EFE",
"|  c #004EFF",
" . c #0250F7",
".. c #0250F8",
"X. c #0150FB",
"o. c #0152FD",
"O. c #0050FF",
"+. c #0151FF",
"@. c #0152FE",
/* pixels */
"o O O O O O + + + @ $ 3 m @.} X.g , $ # # # $ # $ # $ # # # # # & 2 c @.} } k < @ + + + O O O o ",
"o O O O + + + @ @ @ % 3 C } } ] f < $ $ # # # # # # # # # $ $ # % 2 c } } @.h < @ @ + O O + O O ",
"O O O + + + + @ + @ % 5 F @.} ` u > $ # # $ $ # # # # # # # # # & 2 b @.} [ g : @ + + + O O O o ",
"O O O O + + + + @ @ * 5 F X.} / r ; $ $ # # # # $ # $ # # $ # # % 4 b } } ] d : @ + + + O O O O ",
"O O + + + + @ + @ @ * 6 P @.} ^ w ; $ # # # $ # # # # # # $ # # & 4 M @.@. .a : @ @ + O + O O o ",
"O O + + + @ @ @ @ @ - 0 Y @.} W q ; $ # $ # # # # $ # # # # # # * 4 M } }  .y : @ + + + O O O o ",
"+ O + + + + + @ @ # ; q ^ } @.Y 7 - $ # # # $ # # # # # # # # # * 5 B @.} ] y : @ @ + O O O O o ",
"+ + + + @ @ @ @ @ @ : r ` } } F 6 & # $ # # # # # # # # # # # # & 3 D @.} ] y ; @ @ + O + O O o ",
"+ + + + @ @ @ @ @ # < l } } @.M 2 * # # # # # # # # # # # # # # * 5 F } } ] e : @ + + O O O O o ",
"+ + + @ @ @ @ @ @ & 3 C @.} [ z 1 $ # # # # # # # # # # # @ # # & 5 F @.} ` e ; @ + + + O O O o ",
"+ + @ + @ @ @ @ @ - 9 U @.} ` e > $ # # # # # # # # # # # # # # = 5 F } } ] e ; @ @ + O + O O o ",
"@ + @ @ @ @ @ @ # < u ` } } U 7 - $ # # # # # # # # # # # # # # * 5 F @.} ` e ; @ + + + O O O o ",
"+ @ @ @ @ @ @ # * 3 m @.} } b 4 * $ # # # # # # # # # # @ # # # = 6 D } @.` e * @ + O + + O O O ",
"+ @ @ @ @ @ @ $ ; w W @.} ` u > $ $ # # @ # # # @ # # # # # # # * 6 D @.@.` e : @ @ + O O O o o ",
"@ @ @ @ @ # # * 3 n @.} @.G 6 ; # # # # # # # # # # # # @ # # # * 6 P @.@./ q * @ + + O O O O o ",
"@ @ @ @ # @ % < r ^ @.} ] g 1 & # # # # # # # # # # # # # # # # - 6 F @.o.Q e * @ + + + O O o O ",
"@ @ # @ # $ ; 7 K @.X.@.G 9 - $ # $ # # # # # # # # # # # $ # # - 6 K } } Q q * @ + + O O O o o ",
"# # @ # $ ; 7 C [ X.X.~ r 1 & $ # # # # # # # # # # # # # @ # # - 6 P @.} Q q * + + + + O O o o ",
"# # # * : 7 v +.@.{ [ x 4 = $ # # # # $ $ # # $ # # # # # # # # - 7 Y @.} Q 0 * @ + O O O O O o ",
"# $ = 1 0 m [ +.{ @.A 7 ; & $ $ $ $ # # # # # # # # # # @ # # # ; q E } @.Y 6 * + + O + O O o o ",
"= ; 4 u D @.} { @.D q , & $ $ $ $ # $ # # # # # # # # # $ # # $ : e Q @.o.L 5 % + + + O O O o o ",
"2 q v ~ @.{ } +.D q , = $ $ $ $ $ $ # $ # # $ # # # # # # # # $ : h  .@.o.F 3 # + + O O O o o o ",
"x T +.+.@.@.[ A 8 , = $ $ $ $ $ $ # $ # $ # $ # # # # # # # # $ 3 x o.o.o.n < # + + O O O o o o ",
"+.+.} +.@.` x 7 , = & $ $ $ $ $ # $ $ # # # # # $ # # # # # # - 9 L o.o. .y : @ + + + O O o o o ",
"} +.} +.D u 6 > = $ $ $ $ $ $ $ # $ # $ # # # # # # # # @ # $ : e ~ o.o.E 9 * @ + + O O O o o X ",
"+...T j 8 2 = = & $ $ & $ $ $ $ $ $ $ # $ # $ # # # # # # # * 2 F o.X.o.m 3 # @ O O O O o o o o ",
"D j 8 4 > = = $ $ & $ $ & $ $ $ $ # $ # # # $ # # # # # # $ ; w E o.o. .e : @ + + O O O o o o X ",
"7 4 > = & & $ & $ $ & & $ $ $ $ $ $ # $ # # # # # # # # # * 5 n o.o.o.H 5 * @ + O O O O o o o o ",
"> = & & & $ & $ $ $ $ $ $ $ # $ $ $ # # # # # # # # # # % 1 u ^ o.o. .f < # + + + O O o o o o X ",
"& & & & & & & $ & $ $ $ $ $ $ $ # # # $ $ # # # # # # % ; 7 K @.o.X.F 5 * @ + O O O O o o X X X ",
"& & & $ $ & & $ $ $ $ $ $ $ # $ # $ # # # # # # @ $ % - 6 m } } o. .y : @ @ + O O O o o o o X X ",
"& & & & & $ & $ $ $ $ $ $ $ $ $ $ # $ # # # # # $ % ; 6 x X.} }  .k 3 * @ + + O O o O o o X o X ",
"& & & & $ & $ $ $ $ $ $ $ $ $ $ $ # # $ # # # $ % ; 6 v  .X.o.o.F 5 - @ + + + O O o o o o X X X ",
"& & & $ & $ & $ & $ $ $ $ $ $ $ # # # # # $ $ - 1 q B @.@.@.o.F 9 - # @ + O O O o o o X X X X X ",
"& $ & $ $ & $ $ $ $ $ $ $ $ $ # # $ # $ $ & < 5 s P @.} @.@.K q < # @ O + O O O O o o o X X X X ",
"& & & & & $ & & $ $ $ $ $ # $ $ $ $ & - < 3 w C ` @.} } @.K 0 < # @ + + O O O O o o o X X X X . ",
"& & & $ & $ $ $ $ $ $ $ $ $ & & - > 1 6 e b Q @.} } @.@.M 9 : # @ + + O + O o o o o X X X X X . ",
"& & = = & = & = = = = = = > , 4 6 w z F ` @.@.@.} @.Q k 5 ; # @ + + + O O O o o X o X X X . . . ",
", , 2 , 2 4 4 4 4 6 5 7 q u g v F Q @.} } } ..o.` C w 1 * @ @ @ + O O O o o o o o X X X X . . . ",
"g g j j j x x v m C G K W ` ....} } } } @.@. .G u 5 : % @ @ @ O + O O O o O o o X X X X X X . . ",
"] ] ..X.o.o.+.+.....+.+.+.{ { { @.X.o...~ C y 5 : * # @ + @ + O O O O o o o o o X X X . . . . . ",
"@.{ } X...o.o.+.....+.+.+.+.+.+. .W A h q 3 : * # @ + + + O + O O O o o o o X X X X X X . . . . ",
"@.} X.X.@.X. . .....] ` T K C x u 0 5 < - % # @ + + + + O O O O O o o o X o X X X X . . . .   . ",
"C C C v v x x x j d u 8 0 6 2 , : - % # @ @ + + + + + O O O O O O o o o X X X X X . . . . .     ",
"4 3 2 2 1 1 1 < < : : - - % % # # @ + + + + + + + O O O O o o o o o o X X X X . X . . . . .     ",
"& & % $ % # # # # # @ @ @ @ @ + + + + + + + O O O O O O O o o o o X X X X X . X . . . .         ",
"@ @ @ @ + @ + @ + + @ + @ + + + + + + + + O O O O O O o o o o o o X X X X X . . . . .           ",
"@ @ @ @ @ @ @ @ @ + + + + + + + + O O O O O O o O o o o o o X X X X X X . X . . . .   .         "
};
