/* XPM */
static char *result[] = {
/* columns rows colors chars-per-pixel */
"48 48 38 1 ",
"  c #02001E",
". c #030024",
"X c #03002A",
"o c #030132",
"O c #04003F",
"+ c #050040",
"@ c #030846",
"# c #04064D",
"$ c #030A4C",
"% c #040750",
"& c #040B53",
"* c #040C5A",
"= c #04115E",
"- c #050E62",
"; c #041675",
": c #041779",
"> c #041A7D",
", c #041C84",
"< c #041E89",
"1 c #04218D",
"2 c #042494",
"3 c #04269A",
"4 c #04299E",
"5 c #0527A0",
"6 c #042AA3",
"7 c #042EAB",
"8 c #0437C2",
"9 c #0439C5",
"0 c #043CCC",
"q c #033ED3",
"w c #0340D6",
"e c #0343DC",
"r c #0346E4",
"t c #0348E6",
"y c #024AEC",
"u c #024DF3",
"i c #004FFE",
"p c #0050FF",
/* pixels */
"       .           . .     .   .     .  . .  .  ",
" ....  ..... ....  . .. .. ..  . ... .. . .. ...",
"................................................",
"...........X...XX...X..X...X.X....X.X.X.X..X.X..",
"X..XXX.X.X..X..X.XXX.XX.XX.XX.XXXXXXXXXXX.XXXXXX",
"XXXXX..XXXXXXXXXXXXXXXXXXXXXXXXXXXXXXXXXXXXXXXoX",
"XXXXXXXXXoXXXXXXXXXXXXXXXXXoXXXXoXooXXXXXoXoXoXo",
"oXoXooXoXooXoooXoooXoooooooooooooooooooooooooooo",
"@@@O@@@@@@@@#$$$$$&$$$&%&$&&&&&&*=*==========-=-",
";>>>>>>>1>>1,,<111112222222344465546647777777777",
"wwwwwweqweeerrrrtytyyyyyyyyyyyuuuuuuuuuuuuuippui",
"uppppiiippppiiiipppiiiiippiippppiippppppiiiiiuii",
"ppiiiiiippiiiiiippppiiiippppppppippuppppppppiipp",
"uuuuyuuyyytttttrtrrrreeeeewqwwww0wwww9w000099888",
"66665533232222112<<1<<<<,,,,,,>>>>>>;>>::::;::;;",
"-----*-************&*&&&&%%%#%%#%%%#########+###",
"++#+++++++++++++++O++O+++OOOOOOOOOOOOOOOOOOOOOOO",
"+++++++O+O+O+OOOOOOOOOOOOOOOOOOOOOOOOOOOOOOOOOOO",
"+++++++OOOOOOOOOOOOOOOOOOOOOOOOOOOOOOOOOOOOOOOOO",
"++++++OOOOOOOOOOOOOOOOOOOOOOOOOOOOOOOOOOOOOOOOOO",
"++++++OOOOOOOOOOOOOOOOOOOOOOOOOOOOOOOOOOOOOOOOOO",
"++++O+OOOOOOOOOOOOOOOOOOOOOOOOOOOOOOOOOOOOOOOOOO",
"O+++++OOOOOOOOOOOOOOOOOOOOOOOOOOOOOOOOOOOOOOOOOO",
"+++++OOOOOOOOOOOOOOOOOOOOOOOOOOOOOOOOOOOOOOOOOOO",
"+++++OOOOOOOOOOOOOOOOOOOOOOOOOOOOOOOOOOOOOOOOOOO",
"+OO+OOOOOOOOOOOOOOOOOOOOOOOOOOOOOOOOOOOOOOOOOOOO",
"++++OOOOOOOOOOOOOOOOOOOOOOOOOOOOOOOOOOOOOOOOOOOO",
"+O+OOOOOOOOOOOOOOOOOOOOOOOOOOOOOOOOOOOOOOOOOOOOO",
"O+O+OOOOOOOOOOOOOOOO+++OOOOOOOOO++++OOOOOOOOOOOO",
"+++OOOOOOOO+++O+++O+++++++++++O++++++++++++OOOOO",
"%%#%%%%%#%%#%&%%&%%&&%&&&&&*&&&&&%&&&&%%&&&&&&&&",
">,,>,>,,,,<,<<<<<<<<<<<<<<<<<<<<<<<<<<<<<<<<,<,,",
"0qqqwwwwwweweweeeeeeeeeeeeereeeereeeeeeeeeeeeeee",
"ippippiiiipppppppppppppppppppppppppppppppppppppp",
"iiiippppiiiiippipppppppppppppppppppppppppppppppp",
"uuuuyyyyyyyyyyyyyyyyyytyyyyyyyytyyyyyyyyyyyyyyyy",
"555333333223332233222222222222222222222222222222",
"****&&&=&&&*&&&&&&$&&&&&&&&&$&&&&&&&&&&&&&&&&&&&",
"ooooooooooooooXoooooooooXoooooooXoooXoooXooooooo",
"XXXXXXXXXXXXXXXXXXXXXXXXXXXXXXXXXXXXXXXXXXXXXoX.",
"XXXXXXXXXXXXXXXXXXXXXXXXXXXXXXXXXXXXXXXXXXXXXXXX",
"XX.XXX.XX..XX.XX.XXXX..X.X.XXXXX.XX..X.XXXX....X",
".X.X.......XX...X..X.....X.X.....X.X.X...X.....X",
"................................................",
".. .   ..   .. .   ..    . .   ... .   .    .. .",
"                                            .   ",
"                                                ",
"                                                "
};
