/* XPM */
static char *result[] = {
/* columns rows colors chars-per-pixel */
"48 48 37 1 ",
"  c #02001E",
". c #030024",
"X c #03002A",
"o c #030132",
"O c #04003F",
"+ c #050040",
"@ c #030846",
"# c #04064D",
"$ c #030A4C",
"% c #040750",
"& c #040B53",
"* c #040C5A",
"= c #04115E",
"- c #050E62",
"; c #041675",
": c #041779",
"> c #041A7D",
", c #041C84",
"< c #041E89",
"1 c #04218D",
"2 c #042494",
"3 c #04269A",
"4 c #04299E",
"5 c #0527A0",
"6 c #042AA3",
"7 c #042EAB",
"8 c #0439C5",
"9 c #043CCC",
"0 c #033ED3",
"q c #0340D6",
"w c #0343DC",
"e c #0346E4",
"r c #0348E6",
"t c #024AEC",
"y c #024DF3",
"u c #004FFE",
"i c #0050FF",
/* pixels */
" ....XXXO:qiiy6-@++++O+O++++++%>0iuy6*ooXXX..   ",
"  ...XXo@:qiiy6-+++++++++OO+O+%,0iuy3*oXXX...   ",
" ...XXXo@:qiiy6-+++++O++++++++%>0uuy3&oXXXX.    ",
" ....XXX@>qiit4-++++++OO+O+O+O%,0uuy4*oXXX..    ",
" ...XXXX@>0iut3-+++O++++++OOOO%>qiyt4&oXX...    ",
" ....XXo@>qiut5-#+++O++OOOOOOO%,qiuy2=oXXXX..   ",
" ...XXXo@>0uut3-++++OOOOOOOOOO%,qiit4&oXXX..    ",
"  .X.XXX#,0uut3*+++OOOOOOOOOOO%>qiit3&oXX....   ",
". ...XXX@,qiut2-+OOOOOOOOOOOOO%,qiit2&oXX.X.    ",
" ...XXXo@,qiut2*+OOOOOOOOOOOOO%,qiit2&oXXX..    ",
" ....XXo@,wiue2*++OOOOOOOOOOO+%,wiit2&oXXX..    ",
" ...XXXX@1wiue2*+OOOOOOOOOOOO+%,wiit3&oXXX...   ",
" ...XXXo@1wiir2*++OOOOOOOOOOO+%,wiit2&oXXX..    ",
" ....XXo@1eiir1*++OOOOOOOOOOO+%,wiir3&oXX....   ",
" ...XXXo@1eiur2*+OOOOOOOOO+O++%<wiit2&oXX...    ",
" ....XXo$1eiir1*+OOOOOOOOO++++%<wiit2&ooXXX.    ",
" .X.XXXo%1ruur<*+OOOOOOOOOOOO+%<wiit2&oXX....   ",
"  ..XXXo$1ruur<*+OOOOOOOOOOOO+%<wiit2&oXXXX.    ",
" ...XXXo$2ruue1*+OOOOOOOOOOOO+%<wiit2$oXXX..    ",
" ....XXX$1ruue1&+OOOOOOOOOOOO+&<wiit2&oXXX..    ",
"  X.XXXo&1tiie<&+OOOOOOOOOOOO+&<wiiy2&ooX....   ",
" ..XXXXo&2tiie<&+OOOOOOOOOOOO+%<wiit2$oXXXX. .  ",
" ...XXXX$2tiiw<&OOOOOOOOOOOO++&<wiit2$oXXX...   ",
"  ..XXXo&2tuiw<%+OOOOOOOOOOO++&<wiit2&oXX....   ",
" ...XXXX&2tiiq,%+OOOOOOOOOOOO+%<wiit2&oXXX..    ",
" ...XXXo&2yiiw1%+OOOOOOOOOOOO+%<wiit2&oXX.X.    ",
"  XXXXXo&2tiiq,%OOOOOOOOOOOO++%1wiit2$oXXX.X    ",
" ...XXXo&3tiiq>%OOOOOOOOOOOO++%1wiit2&oXX....   ",
"  .XXXXX&3yiu0,%OOOOOOOOOOOO++%<wiit2&oXX....   ",
" ...XXXo&4yyu0,%OOOOOOOOOOOO++%<wiit2&oXXXX.    ",
"....XXXo&4tuuq>%OOOOOOOOOOOO++*<wiir2&oXXX..    ",
" ..XXXXo*4yuuq,%OOOOOOOOOOO+++%<wiir2&XXXX..    ",
" ...XXXo=6yiiq>#OOOOOOOOOOOOO+&<euut2&XXXX...   ",
" ..XXXXo=4yiiq>#OOOOOOOOOOOO++&<wuut2&oXXXX..   ",
"  ..XXoo*4yii0>%OOOOOOOOOOOO++&<wuut2$oXXX..    ",
" ...XXXo=4yii0>#OOOOOOOOOOOO++%<wiut2&oXX...    ",
"....XXXo=6yui9>#OOOOOOOOOOOOO+&<eiut2&oXX.....  ",
" ...XXoo*6iui9>%OOOOOOOOOOOOO+&<wuit2&ooXXX.    ",
" ..XXXXo=6yui9:#OOOOOOOOOOOOOO&<wiit2&oXXX..    ",
" ....XXo=7yui9>#OOOOOOOOOOOOO+&<wiut2$XXX...    ",
" ...XXoO=6iui9;#OOOOOOOOOOOO++%<wiit2&oXXX.. .  ",
"  .X.XXo=7yui9:#OOOOOOOOOOOOO+&<wiit2&oXX.X.    ",
"....XXXo=7iui8:#OOOOOOOOOOOOO+&<wiit2&oXXXX.    ",
" .X.XXXO=7yui8;#OOOOOOOOOOOOO+&,wiit4$oXXX..    ",
" ...XXXo-7yui8:@OOOOOOOOOOOOO+&<wiit2&oXXXX. .  ",
" ...XXXo=7uui8;#OOOOOOOOOOOOO+&,wiit2&oXXX..    ",
"  .XXXoo-7uui9;#OOOOOOOOOOOOOO@1wiit2&oXX.X     ",
"...XXXXo=7yii7;#OOOOOOOOOOOOOO&1wiit3&XXX...    "
};
