/* XPM */
static char *_6262bd0f2fe420089ed2077d768c46axnKTiggyotQazybA[] = {
/* columns rows colors chars-per-pixel */
"48 48 108 2 ",
"   c #000006",
".  c #01000C",
"X  c #010014",
"o  c #02001C",
"O  c #030024",
"+  c #03002B",
"@  c #030133",
"#  c #04003E",
"$  c #050143",
"%  c #030845",
"&  c #05024A",
"*  c #030A4C",
"=  c #050652",
"-  c #040A53",
";  c #040D5B",
":  c #04105D",
">  c #050D62",
",  c #050F6B",
"<  c #041264",
"1  c #04126B",
"2  c #041574",
"3  c #041875",
"4  c #051679",
"5  c #041A7C",
"6  c #041C83",
"7  c #051D8A",
"8  c #051F94",
"9  c #042087",
"0  c #04218C",
"q  c #042393",
"w  c #04269A",
"e  c #04289D",
"r  c #0427A0",
"t  c #042AA1",
"y  c #0428A2",
"u  c #042BA3",
"i  c #0529A4",
"p  c #042AA4",
"a  c #042BA4",
"s  c #042CA5",
"d  c #052BA9",
"f  c #042DA8",
"g  c #042DAA",
"h  c #042DAD",
"j  c #052DAD",
"k  c #042EAC",
"l  c #0430AF",
"z  c #052EB4",
"x  c #0431B1",
"c  c #0431B5",
"v  c #0434BC",
"b  c #0437C1",
"n  c #0436C2",
"m  c #0437C3",
"M  c #0438C3",
"N  c #0438C4",
"B  c #0439C6",
"V  c #043AC7",
"C  c #043AC8",
"Z  c #043AC9",
"A  c #043ACA",
"S  c #043BCA",
"D  c #043BCB",
"F  c #043CCC",
"G  c #043DCD",
"H  c #033FD2",
"J  c #033FD3",
"K  c #033FD4",
"L  c #0340D5",
"P  c #0341D5",
"I  c #0341D6",
"U  c #0341D9",
"Y  c #0342DA",
"T  c #0342DB",
"R  c #0343DB",
"E  c #0344DE",
"W  c #0345DF",
"Q  c #0344E0",
"!  c #0346E3",
"~  c #0346E4",
"^  c #0348E6",
"/  c #0348E8",
"(  c #0249E9",
")  c #024AEC",
"_  c #024BEC",
"`  c #024BED",
"'  c #024BEE",
"]  c #024CF0",
"[  c #024CF1",
"{  c #024DF1",
"}  c #014DF2",
"|  c #024DF2",
" . c #024CF3",
".. c #014EF7",
"X. c #024EF6",
"o. c #014EF8",
"O. c #014FF9",
"+. c #004CFE",
"@. c #004EFE",
"#. c #004FFF",
"$. c #0250F7",
"%. c #0250F8",
"&. c #0150FB",
"*. c #0151FC",
"=. c #0152FD",
"-. c #0151FF",
";. c #0152FE",
":. c #0052FF",
/* pixels */
"O O O + O + + @ < l &.@.=.m 2 & # # # # # # # # # $ # $ # $ 1 h X.@.=.A 2 $ + @ + + + O O O O O ",
"O o O O + + + # < l &.@.=.m 2 & # $ $ # # $ $ # # # # # # $ > g  .@.&.G 3 % @ @ + + + + O O o o ",
"o o O + + + + # : g &.@.@.m 2 & # # # # # # # # # # # # # $ > u  .@.=.H 3 % @ + @ + + + + O O O ",
"O O O O O + + @ : g O.@.&.B 2 * # # $ # # $ # # # $ # $ # $ > r  .@.=.P 5 * @ @ + + + + O O O O ",
"o O O + + + + @ : s ..@.=.B 2 & $ # # # # $ # $ $ # # $ $ $ ; w ' @.-.Y 6 * @ @ @ + + + + O + O ",
"o O O O O + @ @ : s ..@.=.A 4 * # # # # # # # # # # # # # $ - q / @.=.! 0 - @ @ @ @ @ + + + O O ",
"O O O O + + + @ ; s ..@.@.S 4 * # # # # # # # # # # # # # $ - 7 ! -.-./ q ; # @ @ + @ + + + + + ",
"o O O O + + + @ ; a ..@.=.S 4 = # # # # # # # # # # $ # # # = 6 P -.@.{ i : # @ @ @ + @ + + + O ",
"o O O O O + + @ : u $.=.O.K 5 & # # # $ # # # # # # # $ # # * 4 A -.@.O.z 1 # @ @ @ @ + + + + + ",
"o O O O + + + @ : u $.=.=.J 5 * @ # # @ # $ @ # # # # # # # & , z X.@.=.A 3 * @ @ @ @ @ @ @ + + ",
"o O O + + + + @ ; e { =.=.J 5 = $ # # # # @ # # # # # # # # $ > u { @.@.W 6 - @ @ @ @ + @ + + + ",
"o O O O O + + @ - e { &.&.J 6 & # # # # # $ # # # # @ $ # # $ - 7 W @.@.{ a : $ @ @ @ @ @ @ @ + ",
"o O O O + + + @ - e $.@.=.I 6 * # $ # # # # # $ @ # # # # # # * 2 B -.-.-.B 4 % # @ @ @ @ @ @ + ",
"o O O O O + + @ - e ' &.&.I 6 * # @ # # $ @ # @ $ # # $ # # # $ > i { -.-./ q : # @ # @ @ @ @ @ ",
"o O O O O + + @ - w ' =.=.R 6 - # # # @ # # $ @ # # # @ # # # $ ; 6 P -.-.-.B 4 * # @ @ @ @ @ @ ",
"o O O O + + + @ - q ' =.&.R 6 = # # # $ # # # # # # # # # # # # & , j X.-.-.' i < $ @ # @ @ @ @ ",
"o O O O O + + @ * q ' @.O.R 6 - # $ # # # @ $ # # # # # # # # $ $ ; 6 K =.X.=.K 8 ; $ # @ @ @ @ ",
"o o O O + + + + - 0 ( @.@.R 7 = # @ # # # # # # # # # # $ # # # $ & , u / =.=.X.D 6 : $ # # # # ",
"o O O O O + + @ * 0 ~ @.=.! 7 - # # # @ # # # # # # # # # # # $ $ $ = 4 v %.=.+.%.B 7 ; & # # # ",
"o o O O O O + + * 9 ~ @.=.~ q ; # # # $ # # # # $ # # $ # # $ # $ $ & ; 7 G %.=.=.X.A q , * $ $ ",
"o o O O + + + + % 5 R =.=.' e ; $ # # # # # # $ $ # # $ $ # $ # $ $ $ = , 8 P =.=.=.=.K i 4 > = ",
"o o o O O O + + # 3 I =.@.O.h > & @ # $ # # # # # # # # # $ $ $ $ $ $ $ = , 8 P =.+.+.=.' m 8 4 ",
"o o o O O + + @ @ < v =.@.=.v 2 & # # @ # # # # # # # # # $ # $ $ $ $ $ $ = , 8 D =.=.@.#.-.! v ",
"o o o O O O O + @ : e $.=.=.R 6 - # # # # # # # # $ # $ # # $ $ $ $ $ $ $ $ = > 7 v  .@.+.+.-.X.",
"o o o O O O O + @ * 0 R =.=.{ t > $ @ # # # # # # # # # $ # $ $ $ $ $ $ $ $ & = > 6 d K =.@.+.+.",
"X o o o O O O + + % 3 I =.=.=.B 3 * # # # # # # $ # $ # # $ $ $ $ $ $ $ $ & $ & & > , 8 z Q O.@.",
"X X o O O O O + + @ : u $.&.&.( q ; $ # # # # # # # # # # $ # $ $ $ $ $ $ & $ $ & & = > 4 8 z P ",
"o o o o o O O + + + * 5 P =.@.&.M 5 * # # # # # # # $ # # # # $ $ $ $ $ $ $ $ & $ & & = = > 4 7 ",
"X o o o o O O O O + # < g $.@.@.' u 1 % # # # # # # $ # # # $ $ # $ $ $ $ $ & $ $ & & $ & & = > ",
"X X o o o O O O + + @ * 5 P @.@.=.R 7 ; $ # # # # # # # # $ $ # $ $ $ $ $ $ $ $ & $ $ & & & & & ",
"X X o o o o O O O + + # : e ' =.@.=.A 6 ; % # # # # # # # # # $ $ $ $ $ $ $ & $ $ & & & & & & & ",
"X X X o o O o O O + + + % 3 c O.@.=.O.v 5 ; $ # # # # $ # # $ # # $ $ $ $ & $ $ $ $ & $ $ & & & ",
"X X X o o o o O O O + + @ - 5 P =.=.=.&.M 5 : * $ # # # # # $ $ $ $ $ $ $ $ $ $ $ & $ & $ $ & & ",
"X X X X o o o o O O O + @ # : 9 R =.=.=.$.P q < - $ # # # # # # # $ $ # $ $ $ & $ $ & $ & & & & ",
". X X o o o o o O O O + + @ @ < 0 R =.$.&.=.R u 5 < * & $ # # $ $ # $ $ $ $ $ $ $ $ & & $ & & & ",
". X X X X o o o O O O O + + @ # < 0 I =.=.=.=.$.B w 3 > - & $ $ # $ # $ $ $ $ $ $ & & $ & & $ & ",
". X X X X o o o o o O O O + + @ # < 0 G =.=.=.=.=.( M r 6 1 > - & & $ $ $ $ $ & $ $ & & & & & & ",
". . . X X X X o o o O O O + + + @ # : 5 x ( =.=.@.=.=.{ K c w 6 2 1 > ; ; = = = = = & = & & & & ",
". X . X X X X o o o O O O O O + + @ # * 1 e P { &.@.@.@.=.@.( R M h u q 7 6 4 4 4 4 2 , , , , , ",
". . . X X X X X o o o o O O O + + + + @ # : 5 l L ..&.@.@.@.@.&.&...' ! L J G A m v v v z z z z ",
". . . . . X X X X o o o o O O O + + + @ @ @ * < 5 e P ' $.=.=.=.@.@.@.-.@.-.-.-.=.=.=.=.X.X.X.X.",
". . . . X . X X X X o o o O O O O O O + + @ @ @ % : 3 q l P ^ $.=.-.-.-.=.-.-.-.+.+.+.=.+.@.=.@.",
".   . . . . X X X X o o o o o o O O O O + @ + @ @ @ * - : 3 0 s c G R / '  .$.$.=.O.O...-.-.=.@.",
"  . . . . . . X X X X X X o o O O O O O O O O + + @ + @ # % : < 1 2 6 7 q a g l z v m m m B A D ",
"    .   . . . . . X X X o o o o o o O O O + O O O + + @ + @ @ @ # % % - : : : < < 1 1 1 2 2 2 5 ",
"      . . . . . . X X X X X X o o o o O O O O O O + + O + + + + + @ + @ @ @ @ # # # # # $ $ % & ",
"      . . . . . . X X . X X X o o o o O o o O O O O O O + + + + + + + @ @ @ @ + @ @ @ @ @ @ @ @ ",
"          . . . . . X . X X X X X X o o o o o O O O O O O O O O + + + + + + + @ + + @ @ @ @ @ @ "
};
