/* XPM */
static char *_57c975c734f4470e9bb69b1b42ee622KVZk15BPcn04GQho[] = {
/* columns rows colors chars-per-pixel */
"40 40 158 2 ",
"   c None",
".  c #3E1D10",
"X  c #3A2113",
"o  c #3C2213",
"O  c #382317",
"+  c #392317",
"@  c #3C2214",
"#  c #3C2314",
"$  c #3D2314",
"%  c #3E2314",
"&  c #3E2315",
"*  c #3E2415",
"=  c #3F2415",
"-  c #3F2617",
";  c #392418",
":  c #3A2418",
">  c #3B2619",
",  c #3B271B",
"<  c #3D2619",
"1  c #3C271B",
"2  c #3C281C",
"3  c #3C2A1D",
"4  c #3C2A1E",
"5  c #3D2A1E",
"6  c #4E2513",
"7  c #4F2513",
"8  c #4E2613",
"9  c #4F2613",
"0  c #4E2514",
"q  c #4F2514",
"w  c #4F2614",
"e  c #442D1E",
"r  c #462E1F",
"t  c #472E1F",
"y  c #492E1E",
"u  c #4C2F1F",
"i  c #522814",
"p  c #592C17",
"a  c #502F1E",
"s  c #4C301F",
"d  c #53311F",
"f  c #63311A",
"g  c #68341C",
"h  c #6A351D",
"j  c #6B361D",
"k  c #6B361E",
"l  c #6B371E",
"z  c #6E371D",
"x  c #6C381F",
"c  c #442E20",
"v  c #482F20",
"b  c #4C3120",
"n  c #4D3120",
"m  c #4C3121",
"M  c #4D3121",
"N  c #4E3120",
"B  c #4F3120",
"V  c #4F3121",
"C  c #4F3220",
"Z  c #4E3221",
"A  c #4F3221",
"S  c #503322",
"D  c #533423",
"F  c #573421",
"G  c #543523",
"H  c #543524",
"J  c #553524",
"K  c #563624",
"L  c #583422",
"P  c #5A3522",
"I  c #5A3622",
"U  c #5B3622",
"Y  c #5B3722",
"T  c #5A3623",
"R  c #5B3623",
"E  c #5B3723",
"W  c #603521",
"Q  c #603722",
"!  c #613722",
"~  c #623722",
"^  c #623821",
"/  c #613823",
"(  c #623822",
")  c #633823",
"_  c #603A26",
"`  c #733C21",
"'  c #763C20",
"]  c #793D21",
"[  c #793E21",
"{  c #7A3E21",
"}  c #793D22",
"|  c #793E22",
" . c #7A3E22",
".. c #7B3E22",
"X. c #7A3F22",
"o. c #7B3F22",
"O. c #7C3F22",
"+. c #7C3F23",
"@. c #714229",
"#. c #71432A",
"$. c #72432A",
"%. c #72432B",
"&. c #8A4627",
"*. c #8A4727",
"=. c #8B4727",
"-. c #8A4628",
";. c #9A502D",
":. c #99502E",
">. c #9A502E",
",. c #9B502E",
"<. c #9A512E",
"1. c #9B512E",
"2. c #9C512D",
"3. c #9D512D",
"4. c #9D522D",
"5. c #9C512E",
"6. c #9D512E",
"7. c #9D512F",
"8. c #9E512F",
"9. c #9D522E",
"0. c #9D522F",
"q. c #9D532F",
"w. c #9E522E",
"e. c #9E532E",
"r. c #9F532E",
"t. c #9E522F",
"y. c #9E532F",
"u. c #9F532F",
"i. c #9B5431",
"p. c #9E5430",
"a. c #A0542F",
"s. c #A05430",
"d. c #A45832",
"f. c #A55833",
"g. c #A75832",
"h. c #A65833",
"j. c #A85833",
"k. c #A85933",
"l. c #A95933",
"z. c #A85934",
"x. c #A95934",
"c. c #AA5B35",
"v. c #AB5C36",
"b. c #AE5E37",
"n. c #AF5E37",
"m. c #B56038",
"M. c #B56138",
"N. c #B56139",
"B. c #B66138",
"V. c #B66139",
"C. c #B5633B",
"Z. c #B7643B",
"A. c #B86239",
"S. c #B8623A",
"D. c #BD653B",
"F. c #BD663B",
"G. c #BD653C",
"H. c #BD663C",
/* pixels */
"C.H.H.D.D.D.G.D.G.D.D.D.H.G.D.H.D.D.n.    C.D.D.D.D.D.H.D.D.H.G.H.G.H.G.G.G.H.h.",
"2.l.j.g.c.h.j.c.j.c.h.c.l.h.j.j.l.l.,./ D 2.l.c.c.l.j.j.j.c.j.j.c.j.j.j.c.j.j.-.",
"2.c.g.j.j.j.j.c.j.l.c.g.l.j.c.c.g.g.,.Q D a.j.c.h.j.c.c.l.j.c.j.c.j.j.j.j.j.j.-.",
"2.c.l.c.j.c.j.j.j.c.j.l.c.j.j.j.c.c.,.Q v s.j.j.c.j.j.j.c.j.c.j.j.j.c.c.j.c.c.-.",
"2.c.c.j.l.j.j.c.j.c.h.l.j.j.j.j.c.j.,.Q V 2.c.j.j.c.h.c.j.j.h.c.c.j.j.j.h.c.l.&.",
"2.j.j.j.l.c.j.h.j.j.j.l.c.c.l.c.c.l.,.Q D s.h.l.j.j.j.j.j.c.j.j.j.j.c.j.j.l.c.&.",
"2.c.j.c.j.c.j.c.j.c.j.h.j.j.j.l.h.l.,.Q V u.c.c.c.j.g.c.j.c.j.c.j.c.j.h.l.c.l.&.",
"2.j.j.c.j.l.j.j.j.c.l.c.j.j.j.c.j.l.,.Q V 2.l.l.c.j.z.l.j.j.j.j.j.c.j.c.j.j.c.&.",
"2.j.c.j.j.j.l.j.c.c.j.j.c.j.j.j.j.c.2.Q V a.j.j.j.j.c.j.g.c.j.j.j.j.c.l.l.l.l.&.",
"2.c.c.j.c.l.c.j.j.j.j.c.h.j.c.j.j.l.2.Q V 2.c.c.l.l.g.c.c.h.j.c.j.c.j.j.c.j.j.&.",
"2.h.j.j.c.h.j.h.c.z.j.j.l.c.h.c.c.j.2.Q V 2.h.l.g.c.h.g.c.h.j.c.l.l.h.c.j.j.c.&.",
"..] ....' ......' ......' ..........' D v ' ......................+.+.+.+.+.+.j ",
"  X % % % . % % % X % % X % % X % % - 4 4 < % % % % % % % % % % % e . % % - %   ",
"  G D D H H D D v 4 4 v H H H H D G H H H H H D H H H H V 4 4 c H H D D H H H   ",
"b.A.A.C.C.A.A.C.p.v D c.C.A.A.A.A.A.A.A.A.S.A.A.C.A.A.A.h.P c i.A.S.S.A.A.A.A.2.",
"2.l.c.c.c.h.c.j.,.P R a.l.l.c.j.j.j.h.c.c.j.j.c.l.j.g.l.,.R V p.j.c.j.j.j.c.c.&.",
"2.c.c.j.z.l.c.l.,.P R a.c.j.j.c.c.c.j.j.j.j.c.c.j.j.c.h.,.Q v s.j.c.j.j.j.c.j.&.",
"2.j.j.j.c.j.j.l.,.R R s.j.j.j.j.j.j.j.c.c.j.j.j.j.c.j.j.,.Q v a.j.c.j.c.j.j.c.&.",
"2.l.j.c.h.j.j.j.,.P R s.x.j.c.j.j.j.j.c.j.j.c.j.j.j.c.c.,.) V a.j.j.c.j.c.c.j.-.",
"2.l.h.c.l.l.c.j.,.P R s.c.j.j.j.c.c.j.j.c.j.j.j.c.j.j.j.,.Q s 2.c.j.j.h.j.j.j.-.",
"2.l.c.c.j.c.j.j.,.P R a.j.j.c.c.j.j.j.j.c.j.j.c.g.l.g.c.,.Q V 2.j.j.c.c.c.c.z.&.",
"2.l.c.j.j.j.j.c.,.P R a.c.h.j.j.j.c.c.j.c.j.j.c.c.h.c.c.,.Q V 2.j.c.j.j.h.c.g.&.",
"2.c.h.j.l.c.j.c.,.U R a.c.j.j.j.j.j.j.j.j.x.j.j.h.j.g.l.;./ V u.j.l.h.c.j.c.g.&.",
"2.j.j.c.j.h.c.l.2.R R a.j.j.c.c.j.c.j.c.x.x.c.j.h.c.g.l.;./ b u.j.c.j.l.h.j.c.&.",
"2.l.c.z.c.z.l.z.p.P R a.l.c.c.j.c.l.j.c.l.j.j.c.j.l.c.l.,.Q s a.c.l.c.h.c.j.c.&.",
"' j h h h h h h j v v j h h h h h h h h h h h h h h h h g u e j h h h h h h h f ",
"  O : X X O : : < 5 5 1 : X : : X ; : : : : : : X ; ; ; > 2 4 2 ; ; ; X : X ;   ",
"  %.%.%.%.%.%.%.%.%.%.%.%.%.%.%.%.%._ 4 4 H %.%.%.%.%.%.$.%.%.%.%.%.%.%.%.%.@.  ",
"c.C.C.m.C.M.M.M.S.m.B.m.m.m.B.B.N.m.h.D v h.m.m.m.m.m.C.B.B.B.M.m.m.C.B.B.C.C.,.",
"2.j.j.j.l.c.c.g.j.c.j.c.c.c.j.x.z.c.2.) B a.j.j.l.c.j.j.l.l.l.g.c.j.h.j.l.l.l.&.",
"a.j.j.c.j.j.j.c.j.j.c.j.j.j.x.l.x.x.s.) D a.j.j.l.c.c.j.h.g.l.c.c.j.l.g.l.l.l.&.",
"2.j.j.c.l.c.j.h.c.j.j.j.c.j.j.j.x.j.,.) v a.c.c.j.j.j.c.l.c.c.g.j.c.l.l.l.h.l.=.",
"2.c.j.l.j.c.j.j.j.l.j.j.c.c.j.j.j.l.2.) D 2.j.j.c.c.j.j.j.c.j.l.c.c.j.j.j.j.c.&.",
"2.c.l.l.j.c.j.c.c.l.c.j.j.j.j.c.j.c.a.) B a.c.l.j.j.c.j.j.j.j.l.j.j.j.j.c.j.j.&.",
"2.c.c.j.j.j.c.j.j.c.j.j.j.j.j.c.j.j.,.) V a.j.j.j.j.j.j.j.c.j.c.j.j.c.j.l.c.c.&.",
"2.l.l.j.c.j.j.j.j.j.j.c.j.c.j.j.c.j.8.) v a.c.j.j.j.c.j.j.c.j.j.c.j.c.j.g.c.l.&.",
"2.c.j.j.c.j.c.j.c.j.h.j.c.c.j.j.l.l.2.) V a.l.l.j.j.j.c.j.j.c.h.j.j.h.c.h.j.l.&.",
"2.j.j.c.j.j.j.j.j.j.c.c.j.j.l.j.j.c.p.) V 2.l.j.j.c.j.c.j.c.j.j.c.j.c.g.j.j.c.&.",
"2.c.l.j.c.j.j.c.j.c.c.h.c.l.l.l.c.l.2.Q y 2.c.j.j.c.j.j.j.c.j.c.j.c.j.c.l.c.l.&.",
"x 9 9 9 6 0 q q 6 7 7 7 7 q 7 q q q i     p 7 7 q 9 7 9 q q 7 7 q q 7 7 7 7 7 . "
};
