/* XPM */
static char *_46a749931694ce3c8f8485f5462acf4mUNVMRkzmAkGN4qF[] = {
/* columns rows colors chars-per-pixel */
"48 48 83 1 ",
"  c #01000D",
". c #010014",
"X c #02001C",
"o c #030024",
"O c #03002A",
"+ c #030132",
"@ c #03053B",
"# c #050044",
"$ c #040846",
"% c #050149",
"& c #040849",
"* c #050552",
"= c #040D55",
"- c #050B59",
"; c #04105D",
": c #050E63",
"> c #041265",
", c #05126D",
"< c #051371",
"1 c #041975",
"2 c #05177B",
"3 c #041B7D",
"4 c #041D84",
"5 c #041D8A",
"6 c #04218B",
"7 c #052394",
"8 c #04269B",
"9 c #042AA4",
"0 c #042DAA",
"q c #052EB0",
"w c #0430B0",
"e c #0431B2",
"r c #0530B4",
"t c #0432B8",
"y c #0335B9",
"u c #0435B9",
"i c #0534BB",
"p c #0335BD",
"a c #0337BD",
"s c #0338BF",
"d c #0535C1",
"f c #0437C3",
"g c #0439C6",
"h c #033BC8",
"j c #0438C8",
"k c #043BC9",
"l c #033DCE",
"z c #043ECF",
"x c #033ED0",
"c c #043DD1",
"v c #033ED5",
"b c #043FD5",
"n c #0340D2",
"m c #0340D5",
"M c #0243DB",
"N c #0442D8",
"B c #0343DE",
"V c #0445DF",
"C c #0444E0",
"Z c #0347E4",
"A c #0448E7",
"S c #0349E9",
"D c #024AEA",
"F c #014AED",
"G c #024BEE",
"H c #024CF0",
"J c #024DF4",
"K c #024DF5",
"L c #024FF6",
"P c #024FF7",
"I c #014EF8",
"U c #004DFD",
"Y c #004CFE",
"T c #014FFE",
"R c #014FFF",
"E c #0150F8",
"W c #0151FB",
"Q c #0150FF",
"! c #0151FF",
"~ c #0052FE",
"^ c #0053FE",
"/ c #0152FF",
"( c #0153FF",
/* pixels */
"       .....XXXXXXXoXXoXXoXoXXXXXXXX.....       ",
"      ....XXXXXXoooooooooooXooooXXXXXX.... .    ",
"     ....XXXXXXoooooOoOooooooooXXooXXX.X...     ",
"    .....XXXXooooooooOoOOOOOoOoOoooXXXX......   ",
"  . ...XXXXXoooOOOOOOOOOOOOoOOOOoooooXXXX.....  ",
"   ....XXXXoooOOOOO+@@$@@@@@OOOOOOoOoXXXX.....  ",
". ....XXXoooOOOO@$&;>11131>=&@@OOOOOoooXXX.... .",
"....X.XXooooOO+$=>60snnnnny061=$@+OOOooXXXX.... ",
" ...XXXXooOOO@&>7iBHPTU~EEJGBa8<=@++OOooXXXXX...",
"...XXXXoooOO@&10BP~~~((~^~~~~~Zu6;$+OOOooXXX....",
"...XXXXoooO@&1eD~U~~TPIJEE~~~U~Ez7>&+OOOooXXX...",
"...XXXooOO+$>9D~UUUSbfurugnDE~U~^c7>$+OOooXXXXX.",
".X.XXoooOO@=6n~U~Pc941,,,259kDUUU~c6-@OOoooXXX..",
"..XXXXooOO$>eEUUEk5>-%%%%*->40V~U~Ei1&+OoooXXXX.",
"..XXXooOO+&6N~U~b7:%##@####%-<8C^U^S9;@OoOooXXX.",
"XXXXooooO@;8G~~Jq1%%########%*<9S~U~k2$+OooXXXXX",
".XXXoooOO@>ePYTC7:####%##%###%-2dPT(A8=@oOooXXXX",
"XXXooooO+@1i(T(c5-##########%#%:8ATUPe>@OoooXoXX",
".XoXoooOO$2gTYTj4*###%#%%%##%#%-4c~Y~g1@OOooXXXX",
"XXXoooOO+$3z~Y(d2*#%#%%#%#%%%##-2iPY~c2$OOOoooXX",
"XXXooOoO+$3z~U(d2*#%%##%%##%#%#*<iJY~b4$OOOooooX",
"XXXooOOO+$3c~U(d2*%#%%%%%%%%%##*,iJY~b4&+OOooXXX",
"XoXoooOO+&3c~U(d2*%%%%%%%%%#%%#*<qJ~~b4&+OOoooXX",
"XXXooOOO+$4c~YTd2*%%#%#%%#%%###*<rJY~b4&+OOooooX",
"XXXoooOO+&4n~(Td2*#%%#%%%%%%#%#*<rJTYb4&+OOooooX",
"XXooOOOO+&3c~T(d2-%%%%%%%%%#%%#*<rKTTb5&+OOoOoXo",
"oXoooOO++&3z~U(d2*#%%##%%%#%%%%*<rJTTb5&+OOOooXX",
"XXooOOOO+&3c~YTd2*%%%%%%%%%%%##*<rJT(b4&+OOOoooo",
"XXoOoOOO+&4c(T(d4*%%%%%%%%%%%%%*<rPT~b5&+OOOoooX",
"XXooOOOO+&4cTTTd2*%%#%#%%#%%#%#*<rJT(b4&++OOOooX",
"XoooOOO++&3c(TUd2*%#%%%%#%%#%%#*<rPTTN4&++OOOooo",
"XooooOOO+%4c(TUf2-#%#%%#%%%%###*<rHTTN4&+OOOooXX",
"XXooOOOO+&4z~Y~f2*#%#%%%#%#%%#%*,rP((b5&+OOOoooX",
"XooooOOO+&4z~UUi2*%%#%#%%##%#%%%,rJ((b5&+OOOOoOX",
"XooooOOO+&4c~U~d2*#######%#%%#%%,rJT(N4&+OOOOooX",
"XoooOOO++&4z~U(d2*###%#%#######*<rJT(N4&+OOOoOoX",
"XooooOOO+$3z~U(d2*#############%,rJTTb4&+OOOooXo",
"XXooooOO+$4z~UTd2*#############%,rJT(b4&+OOoOooX",
"ooooOOOO+$4z~U(d2%#############%,rJT(b5&OOOOOooX",
"XXoooOOO+%3c~UTi2###############,qJT(b5#+OOOoooo",
"XXooooO++$3nEU(i2*#########@###&,rJT(b4&+OOOoooX",
"oXooOOOO+&3c^U(d2%@#####@######%,rJT(N4&+OOooooo",
"XXoooOOO+$3n~U(d2*@####+####@##&,rJTTb4&+OOOooXo",
"XooooOOO+&4c~T(d2*######@##@###%,rPT(b4&OOOOOOoX",
"XXoooOOOO&3z~U(d2*@##@#@#@###@#%,qJT(b4&+OOOoOXX",
"oXoooOOO+&4z~UTd2%#############%,qJT(c4&OOOooooo",
"oXoooOOO+&3z~Y(d2*@##@####@##@#%,rJT(N4&+OOoOooX",
"XXoooOOO+&4z~Y(i2*#####@#@#####%,rJT(N4%+OOOoOoX"
};
