/* XPM */
static char *_7a00f7b5ce7401ef9144efabf54c1df0D1kiZdMslEOd5yT[] = {
/* columns rows colors chars-per-pixel */
"48 48 83 1 ",
"  c #01000D",
". c #010014",
"X c #02001C",
"o c #030024",
"O c #03002A",
"+ c #030132",
"@ c #03053B",
"# c #050044",
"$ c #040846",
"% c #050149",
"& c #040849",
"* c #050552",
"= c #040D55",
"- c #050B59",
"; c #04105D",
": c #050E63",
"> c #041265",
", c #05126D",
"< c #051371",
"1 c #041975",
"2 c #05177B",
"3 c #041B7D",
"4 c #041D84",
"5 c #041D8A",
"6 c #04218B",
"7 c #052394",
"8 c #04269B",
"9 c #042AA4",
"0 c #042DAA",
"q c #052EB0",
"w c #0530B3",
"e c #0530B4",
"r c #0530B5",
"t c #0532B8",
"y c #0435B9",
"u c #0434BB",
"i c #0337BD",
"p c #0436BD",
"a c #0535C1",
"s c #0536C1",
"d c #0536C2",
"f c #0339C6",
"g c #053AC7",
"h c #033AC8",
"j c #033BC8",
"k c #043BC9",
"l c #033CCA",
"z c #043ECE",
"x c #033ED0",
"c c #053ED1",
"v c #043ED2",
"b c #033FD5",
"n c #043FD5",
"m c #0340D2",
"M c #0340D5",
"N c #0341D7",
"B c #0343DA",
"V c #0445DE",
"C c #0445DF",
"Z c #0444E0",
"A c #0347E4",
"S c #0448E7",
"D c #0349E9",
"F c #024AEA",
"G c #024AEB",
"H c #034BEC",
"J c #024DF5",
"K c #024DF6",
"L c #024FF6",
"P c #014EF8",
"I c #024FF8",
"U c #004CFE",
"Y c #004DFF",
"T c #014FFE",
"R c #004FFF",
"E c #0150F8",
"W c #0150FB",
"Q c #0151FB",
"! c #0150FF",
"~ c #0151FF",
"^ c #0052FF",
"/ c #0053FF",
"( c #0153FF",
/* pixels */
"oXoXoXXoXXoXXoooXXXoXXXXXXXXXXXX.X......        ",
"ooooooooooooooooooXooXooXooXXXXXXXX..X....      ",
"ooooOooooOoooooooooooooooXXXXoXXXXXXXX... ..    ",
"ooOooooooOoOooOoOoOoOooOOoOooXoXXXXXX..X......  ",
"OooOOoOoOoOooOOOOOOOOoOoooooOoXoooXXXXXX.....   ",
"OOOOOOOOOOOOOOO+OOOOOOOOOOOOoOoOooXoXXXXXX.... .",
"OOOOOOOOOOOOOOOOOOO+OOOOOOOOOOoOoooooXXXXX..... ",
"O+++O++++++++++O+++++++++++OOOOOOOOoooooXXX.....",
"&$$&$$&$&$&&$&&$&&&&&&&&$$&$$@@+OOOOOooooXXXX...",
"554555545464555554555455444421>=$@++OOoooXXXX.X.",
"bbMbbbnnbbvbnbnnvMnncnnnnMnMzge81>&@+OOOoooXXXX.",
"^^^^^^^^^^^^R^^^^^^^^^^^^(^(^^LSh91=$++OOooXXX.X",
"RRRRRRRRRRRRRRRRRRRRUURRRRRR^R^^^Su5;$@OOooooXX.",
"JJJJJJJJJJJJJJJPJJJJPPKKJJJJPWRRR^Pv7;$@+OoooXXX",
"wwwqwwwqwwwqeqeqtqeeeeeeeeetsvSP^R^^M7;@+OOooXXX",
",,,,,,,,,,,,,<<<<<<<,<,,,,,<248sHWJ^(m6=@OOOoooX",
"&%%%&%%%*%%%*****%**%%*%**%%--:29ZRR^Ku<$OOOoooX",
"################%%%%%%%%%%##%%%-<9VRR^S8=@OoOoXX",
"#@###@########%%%%%%%#%%%#%%%#%%*<0H^RPu<$OOoooX",
"##@###@########%##%%%%#%%%%###%#%*4hK^^V6&+OoooX",
"###@#@##@####%%#%%%%#%%#%%%%%####&:9S^^H9=@ooooX",
"@##############%#%%#%%%%%#%#%####%*5nR^Ki>@OoOoo",
"@###@#@######%#%%%#%%%%#%##%#%###@%2kPRRm,@oOooX",
"###@##########%#%%%%%%%%%%%%%#%#%%%<uK^^m1@OOooo",
"###############%%%#%%%%%%#%#%%###@%,eJ^Rm3$OOooo",
"#####+########%%#%%%%#%%%%%%#%##%@%,tJ^^m3@OoooX",
"########@#####%#%%#%%%#%%%%#%%####*<sP^Rm1@OoOoo",
"###++########%#%#%%%%#%%#%#%###%##-5M^^Pu;@OOooX",
"##############%%%%%%%%%%%%%%####%&:9F((H0;+ooooX",
"@############%#%#%%#%%%%#%#%#%#%%:5nW((V6$+OOooo",
"%**%%*%%%*********************-:<7fJ(^Wi1@OOoooX",
"222222222222222224222242222222570nW^^WB6=@+oooXX",
"ssssaataaauaauadaaaussaaaudasgvZL~RU^H0>@+OoooXX",
"P^^W~~^TT~~~~~~~~RR~^R~RR~R(R^~^RUR^H01$@OOoooXX",
"IELL~TIITTTTTT~~RRRRRRURRRRRRRR^^^Ln91&@OOoooXXX",
"~(((((~I~~~~~~~T^^^^~~~~~(~~^R^JHMq5>&@+OoooXXXX",
"ccmcccmmccccccckczvmcmcczvvkvguw85,=$++OoooXXXX.",
"2433323333333434444233244242311>;&$@+OOOooXXXX..",
"&&&&&&&$&&&&&&&&&&&&&&$$&&$$$$$@@+OOOOooooXXXX..",
"++++++++++++++++++++++++++++OOOOOOOooooooXXX.X..",
"OOOOOOOOOOOOOOO+O+O+OOO+OOOOOOOOOOooooXXXXX.....",
"OOOOOOOOOOOOO+OOOOOOOOOOOOOOOooOoooooXoXXXX.... ",
"OOOOOOOoOOoOoOOOOOOOOOOOOoOooooooooXXXXX.X..... ",
"ooooOooOoOOoOOoOoOoOOoooOoooOXOoXXXXXXXX.....   ",
"oOoooooooOoOooOoooOoooooXooooXXXXXXX.X.X...     ",
"oXoXooooXoXoXoXoooXoooXoXoXXXXXXXXXXX.... .     ",
"XXXXoXXXXooXoooXXoXoXXXoXXXXXXXX.X.......       ",
"ooXoXXooXXXXXXXXoXXXXXXXXXXXXX..X....... .      "
};
