/* XPM */
static char *_e72279b23014e34ea62148ebd0ef465RcvAsX4wQysnUlUY[] = {
/* columns rows colors chars-per-pixel */
"48 48 90 1 ",
"  c #01000D",
". c #010014",
"X c #02001C",
"o c #030024",
"O c #03002A",
"+ c #030132",
"@ c #03053B",
"# c #050044",
"$ c #040846",
"% c #050149",
"& c #040849",
"* c #050552",
"= c #040D55",
"- c #050B59",
"; c #04105D",
": c #050E63",
"> c #041265",
", c #05126D",
"< c #051371",
"1 c #041975",
"2 c #05177B",
"3 c #041B7D",
"4 c #041D84",
"5 c #041D8A",
"6 c #04218B",
"7 c #052394",
"8 c #04269B",
"9 c #042AA4",
"0 c #042DAA",
"q c #052EB0",
"w c #0332B2",
"e c #0431B1",
"r c #0530B3",
"t c #0530B4",
"y c #0530B5",
"u c #0532B8",
"i c #0335B9",
"p c #0434BB",
"a c #0335BD",
"s c #0337BD",
"d c #0436BD",
"f c #0535C1",
"g c #0536C1",
"h c #0536C2",
"j c #0339C6",
"k c #0439C6",
"l c #053AC7",
"z c #033AC8",
"x c #033BC8",
"c c #043BC9",
"v c #033DCE",
"b c #043ECE",
"n c #033DD1",
"m c #053ED1",
"M c #033FD6",
"N c #043FD5",
"B c #0340D2",
"V c #0340D5",
"C c #0340D6",
"Z c #0341D7",
"A c #0343DA",
"S c #0343DE",
"D c #0445DE",
"F c #0445DF",
"G c #0444E0",
"H c #0347E5",
"J c #0448E7",
"K c #0249EA",
"L c #024AEA",
"P c #024AEB",
"I c #014AED",
"U c #034BEC",
"Y c #024CF0",
"T c #024DF4",
"R c #024DF5",
"E c #024EF5",
"W c #024DF6",
"Q c #014FF7",
"! c #024FF6",
"~ c #024FF8",
"^ c #014FFA",
"/ c #004CFE",
"( c #014FFE",
") c #004FFF",
"_ c #0050FB",
"` c #0151FB",
"' c #0150FF",
"] c #0151FF",
"[ c #0053FF",
"{ c #0153FF",
/* pixels */
"       . ....XX.XXXXXXXXXXXXXXoXXoXoXooXooXooXoo",
"      ...X.XX.XXXXXXoXXooooooooooooooooooXXooooX",
"    . ....X.X.XXXXXooXoooooooooooOoooooooooooooO",
"    .....X.XXXXXXoXoooooooOoooOoooOooooOOoOooOoo",
"   .....XXXXXXXooooooOoooOOOOOOOOOOOOoOoOoOoOoOo",
". .....XXXXXoooooooOoOOOOOOOOOOOOOOOOOOOOOOOOOOO",
" .....XXXXoooooOOoOOOOOOOOOOOOOOOOOo+OOOOOOOOOOO",
"....XXXXoooooooOOOOOO++++++++++++++++++++++O+++O",
"...XXXXXooOOOOO++@@$$&&&&&&&&&&&&&&$$&$$&&&&&&&*",
"...XXXooooOOO+@&=>134444554455555556455544554445",
".XXXXoooOOO+@&;28wknNNNNmNNMMMnMCmNNBmmNNmmCNAmN",
".XXXoooOOO+$=28zHT{{{{{){{{{{{{{(((({{{{{{{{{~~{",
"XXXoooOOO@$;6aJ{{)))//))))//))))(//((((()))({{~~",
"XXXoooOO+$>7v_{)))^^R^RRRRR)TTTTTTTTTT~~~TY~~U~~",
"XXoooOO+#;6V{)){^Hmguquqqqqyuqquyyyyrrrrrrrrrrrw",
"XXXooOO@=6v{))^Kg842<<<<<<<<<<<<<,,,,,,,,,,,,,,,",
"XXoooO+$<uT)()F02:-**************%**%%%%%&%*%%%%",
"XoooOO@=8H{)(G8<-%%%#%####%######%#####%###@####",
"ooooOO@1d{){U0<*%###%##%#%#%%#%#%#%%###@#####+##",
"XXooO+&6D{{~c2-####%#%%#%%%%%%%%%#%########@####",
"oooOO+;9U{)K9:%##%#%#%%%#%#%%%%%%########@####+#",
"ooOoO@>iT{)N5-%###%##%%%%%%%#%%#%#%#############",
"XooOO@<j{[^k2&@###%%%#%#%%%%#%%%#%#####@########",
"XoooO$1v)[Tp<%###%#%%%%%%%%%%%%#%%#######@#@#+##",
"oooOO$3B{)Yy,&###%%#%#%%%%%%%%%#%###########@#@#",
"XoooO@1B))~y,%#####%#%%##%%%#%%%%#%######@######",
"ooOOO@1B){^g2&####%#%%%%%#%##%%%#%#%#######@####",
"XooOO@>i^{)N4*##%##%#%%#%%%%%%%#%%###########@@#",
"XooOO+;0U{)U9:%######%#%#%%#%%%#%#%#############",
"XXooo+&6D{)^m5:*%###%%%%%%%*%#%%######@#@#####@#",
"oooOOO@1p~^)^k7<---********************&**%%*%*&",
"XXXoOO+=7A{)))Nq75422224222242222222222222222222",
"XoooOO+$>0K[_[[!Smggffffffffggffffpgaggugkpgfpgf",
"XXXooOO+$10K__{{){{{{){)){{){)){){{){)))){{)){))",
"XXXoOoO+@=19A^_{))))////)//)/////////)))))////)/",
"XXXXXooOO@$>6wNU^{){{{{{){{){{{{{{{{{){{{){{{{{{",
".XXXXoOoO++$=,68wdkbBBBBbbmvbmnbbmvbbbmbbbbbbbbb",
"..XXXXXOOOO++$&=>1133333343434443444433343344343",
".X.XXXXooooOOO+@@$$$$$$$&&&&&&&&&&&&$$&$$$&&&&&$",
"..X.XXXoooOOOOOOOOO++O++++++++++++++++++++++O+++",
"....XXXXXoOoooOOOOoOOOOOOOOOO+OO+O+OOOOOOOOOOOO+",
" .....XXXXXXooooOoOoOOOOOOOOOOOOOOOOOOOOOOOOOOOO",
"  ....X.XXXoooXooOoOoOoOOOOOOOOOOOOoOOOOOOOOOOOo",
"   ......XXXXXXXXooooooOoOOooOOoOoOoOoooooooooOo",
"   . ....XXXXXXXXXooooooooooooOOoooooooooooooooo",
"    .......X.XXXXXXXXXXoXoXoooXooooooooooooooooo",
"       ......X.XXXXXXXXXoXXoXoXXoXoXoXXoXXXXoXXX",
"       . ........X.XXXXXXXXXXXXXXXoXXXoXXooXXXoX"
};
